ply
format ascii 1.0
comment VCGLIB generated
element vertex 442
property float x
property float y
property float z
property float nx
property float ny
property float nz
property float texture_u
property float texture_v
element face 720
property list uchar int vertex_indices
end_header
0.02847769 0.002816055 -0.02069026 0.136871 -0.9846011 -0.1087516 0.722931 0.312480
0.05625413 0.01119489 -0.04087103 0.251295 -0.9495748 -0.1875062 0.741724 0.329777
0.02069026 0.002816056 -0.02847769 0.09656603 -0.9846012 -0.1457245 0.726861 0.306239
0.04087102 0.01119489 -0.05625413 0.181053 -0.9495748 -0.2559835 0.748656 0.317227
0.01087753 0.002816057 -0.03347753 0.04680849 -0.9846011 -0.1684328 0.728879 0.298978
0.02148718 0.0111949 -0.06613069 0.09308844 -0.9495747 -0.2994034 0.752087 0.303260
2.914022e-08 0.002816057 -0.03520035 -0.00753105 -0.9846011 -0.1746538 0.728859 0.291317
2.914022e-08 0.0111949 -0.06953391 -0.003988096 -0.9495747 -0.3135156 0.751876 0.288885
-0.01087747 0.002816057 -0.03347752 -0.06113329 -0.9846011 -0.1637783 0.726818 0.283867
-0.02148712 0.0111949 -0.06613068 -0.1006744 -0.9495747 -0.2969386 0.748064 0.275041
-0.0206902 0.002816056 -0.02847768 -0.1087515 -0.9846012 -0.1368711 0.722917 0.277198
-0.04087096 0.01119489 -0.05625412 -0.1875061 -0.9495748 -0.2512953 0.740895 0.262595
-0.02847762 0.002816055 -0.02069025 -0.1457243 -0.9846011 -0.09656613 0.717452 0.271818
-0.05625407 0.01119489 -0.04087102 -0.2559835 -0.9495748 -0.1810532 0.730811 0.252327
-0.03347746 0.002816054 -0.01087753 -0.1684327 -0.9846011 -0.04680872 0.710837 0.268154
-0.06613061 0.01119489 -0.02148718 -0.2994031 -0.9495748 -0.0930887 0.718440 0.244918
-0.03520029 0.002816052 -3.207623e-08 -0.1746537 -0.9846012 0.007530775 0.703580 0.266560
-0.06953383 0.01119489 -3.097747e-08 -0.3135153 -0.9495748 0.003987996 0.704572 0.240969
-0.03347746 0.002816051 0.01087746 -0.1588454 -0.9869829 0.02515864 0.696286 0.267309
-0.02847762 0.00281605 0.02069019 -0.1368711 -0.9846012 0.1087514 0.956484 0.671558
-0.05625406 0.01119488 0.04087094 -0.2512951 -0.9495748 0.1875061 0.956888 0.645741
-0.06613061 0.01119488 0.02148712 -0.2878792 -0.9565807 0.04559523 0.690162 0.241063
-0.02069019 0.002816049 0.02847761 -0.0965661 -0.9846011 0.1457243 0.949132 0.672792
-0.04087095 0.01119488 0.05625404 -0.1810532 -0.9495748 0.2559834 0.942756 0.648956
-0.01087747 0.002816048 0.03347744 -0.04680856 -0.9846011 0.1684326 0.942295 0.676155
-0.02148712 0.01119488 0.06613059 -0.09308862 -0.9495748 0.2994032 0.929910 0.655765
2.809118e-08 0.002816048 0.03520027 0.007530982 -0.9846011 0.1746535 0.936529 0.681325
2.706795e-08 0.01119488 0.06953382 0.00398808 -0.9495747 0.3135154 0.919208 0.665596
0.01087752 0.002816048 0.03347744 0.06113334 -0.9846012 0.1637782 0.932282 0.687877
0.02148717 0.01119488 0.06613059 0.1006745 -0.9495748 0.2969384 0.911328 0.677787
0.02069025 0.002816049 0.02847761 0.1087515 -0.9846012 0.136871 0.929876 0.695308
0.040871 0.01119488 0.05625404 0.1875062 -0.9495748 0.2512951 0.906762 0.691570
0.02847767 0.00281605 0.02069019 0.1457243 -0.9846011 0.09656604 0.929493 0.703050
0.0562541 0.01119488 0.04087094 0.2559834 -0.9495748 0.1810533 0.905800 0.706087
0.03347751 0.002816051 0.01087746 0.1684327 -0.9846012 0.04680834 0.931180 0.710506
0.06613066 0.01119488 0.02148711 0.2994032 -0.9495748 0.09308848 0.908535 0.720405
0.03520033 0.002816052 -3.207623e-08 0.1746537 -0.9846011 -0.007530874 0.934861 0.717054
0.06953388 0.01119489 -3.097747e-08 0.3135154 -0.9495748 -0.003988042 0.914886 0.733524
0.03347753 0.002816054 -0.01087753 0.166945 -0.9822901 -0.08506288 0.717352 0.317095
0.0661307 0.01119489 -0.02148719 0.3050579 -0.9395636 -0.1554348 0.731593 0.339807
0.08264543 0.02493019 -0.06004542 0.3697888 -0.8880271 -0.2732476 0.761494 0.344925
0.09715552 0.02493019 -0.03156776 0.4345731 -0.8729931 -0.2214259 0.747908 0.360800
0.06004542 0.02493019 -0.08264542 0.2672516 -0.8880271 -0.374145 0.770658 0.326273
0.03156775 0.0249302 -0.0971555 0.1385541 -0.8880271 -0.4384185 0.775077 0.306174
2.914022e-08 0.0249302 -0.1021553 -0.003705468 -0.888027 -0.4597765 0.774564 0.285811
-0.0315677 0.0249302 -0.0971555 -0.1456026 -0.888027 -0.4361283 0.769148 0.266303
-0.06004535 0.02493019 -0.08264539 -0.2732476 -0.8880271 -0.3697888 0.759116 0.248707
-0.08264533 0.02493019 -0.0600454 -0.3741451 -0.888027 -0.267252 0.745009 0.233979
-0.09715542 0.02493019 -0.03156774 -0.4384188 -0.8880268 -0.1385549 0.727600 0.222925
-0.1021553 0.02493018 -2.917631e-08 -0.4597766 -0.888027 0.003705324 0.707841 0.216227
-0.09715542 0.02493018 0.03156769 -0.4350764 -0.8977528 0.06890955 0.686841 0.214574
-0.08264533 0.02493018 0.06004532 -0.3697889 -0.888027 0.2732475 0.955013 0.620634
-0.06004534 0.02493017 0.08264531 -0.2672518 -0.8880271 0.3741449 0.934776 0.626270
-0.03156769 0.02493017 0.09715538 -0.1385544 -0.8880271 0.4384184 0.916640 0.636460
2.609576e-08 0.02493017 0.1021552 0.003705453 -0.888027 0.4597764 0.901623 0.650549
0.03156774 0.02493017 0.09715538 0.1456027 -0.8880271 0.4361282 0.890549 0.667760
0.06004538 0.02493017 0.0826453 0.2732477 -0.8880271 0.3697887 0.884025 0.687168
0.08264537 0.02493018 0.06004532 0.3741449 -0.888027 0.2672521 0.882404 0.707721
0.09715546 0.02493018 0.03156768 0.4384184 -0.8880271 0.1385546 0.885779 0.728293
0.1021553 0.02493018 -2.917631e-08 0.4597764 -0.888027 -0.003705354 0.894021 0.747706
0.1070017 0.04368373 -0.07774127 0.4785519 -0.8045011 -0.351804 0.782016 0.358106
0.07774129 0.04368374 -0.1070017 0.3464161 -0.8045012 -0.4824663 0.792822 0.333753
0.04087102 0.04368374 -0.125788 0.1803708 -0.8045013 -0.5659012 0.797945 0.308068
2.914022e-08 0.04368374 -0.1322613 -0.003329874 -0.8045013 -0.5939416 0.797065 0.282265
-0.04087096 0.04368374 -0.125788 -0.1867046 -0.8045013 -0.5638432 0.790154 0.257595
-0.07774121 0.04368374 -0.1070017 -0.3518041 -0.8045012 -0.4785516 0.777528 0.235288
-0.1070016 0.04368373 -0.07774126 -0.4824664 -0.8045012 -0.3464161 0.759831 0.216445
-0.1257879 0.04368373 -0.04087101 -0.5659012 -0.8045012 -0.180371 0.737973 0.201934
-0.1322612 0.04368373 -2.671708e-08 -0.593942 -0.804501 0.003329527 0.713037 0.192363
-0.1070016 0.04368372 0.0777412 -0.4785518 -0.8045012 0.351804 0.951150 0.596283
-0.1257879 0.04368372 0.04087095 -0.5702038 -0.8165241 0.09031126 0.686196 0.188244
-0.0777412 0.04368371 0.1070016 -0.3464162 -0.8045013 0.482466 0.925507 0.604517
-0.04087095 0.04368371 0.1257879 -0.1803708 -0.8045014 0.565901 0.902682 0.617934
2.519853e-08 0.04368371 0.1322612 0.003329822 -0.8045014 0.5939415 0.883808 0.635959
0.040871 0.04368371 0.1257879 0.1867047 -0.8045012 0.5638432 0.869846 0.657772
0.07774124 0.04368371 0.1070016 0.3518039 -0.8045014 0.4785514 0.861512 0.682307
0.1070016 0.04368372 0.07774118 0.4824658 -0.8045014 0.3464162 0.859204 0.708336
0.125788 0.04368372 0.04087094 0.5659008 -0.8045015 0.1803712 0.862963 0.734590
0.1322613 0.04368373 -2.671708e-08 0.5939415 -0.8045014 -0.00332987 0.872521 0.759842
0.125788 0.04368373 -0.04087102 0.5521399 -0.7848538 -0.281329 0.765990 0.379851
0.1287232 0.06699377 -0.0935229 0.5749312 -0.7014178 -0.4212685 0.803089 0.369562
0.0935229 0.06699377 -0.1287232 0.4166129 -0.7014176 -0.578314 0.815115 0.340015
0.04916791 0.06699378 -0.1513232 0.2175136 -0.7014176 -0.6787498 0.820758 0.309229
2.914022e-08 0.06699378 -0.1591106 -0.002877509 -0.7014177 -0.7127447 0.819471 0.278388
-0.04916785 0.06699378 -0.1513232 -0.2229867 -0.7014174 -0.6769716 0.811130 0.248885
-0.09352284 0.06699377 -0.1287232 -0.4212689 -0.7014173 -0.5749316 0.796084 0.222156
-0.1287231 0.06699377 -0.09352287 -0.5783142 -0.7014175 -0.4166128 0.775106 0.199467
-0.1513231 0.06699377 -0.04916789 -0.6787497 -0.7014175 -0.2175138 0.749276 0.181719
-0.1591105 0.06699376 -2.366033e-08 -0.7127445 -0.7014179 0.002877422 0.719829 0.169345
-0.1513231 0.06699375 0.04916783 -0.6899596 -0.7155515 0.1092784 0.688005 0.162401
-0.1287231 0.06699374 0.0935228 -0.5749311 -0.701418 0.4212683 0.945614 0.572677
-0.09352281 0.06699374 0.1287231 -0.4166129 -0.7014177 0.5783138 0.915231 0.583485
-0.04916784 0.06699374 0.1513231 -0.2175137 -0.7014177 0.6787496 0.888208 0.599942
2.439836e-08 0.06699374 0.1591105 0.002877517 -0.7014179 0.7127445 0.865807 0.621664
0.04916788 0.06699374 0.1513231 0.2229868 -0.7014175 0.6769716 0.849161 0.647808
0.09352285 0.06699374 0.1287231 0.4212686 -0.7014172 0.5749318 0.839120 0.677143
0.1287232 0.06699374 0.09352279 0.5783138 -0.7014177 0.416613 0.836118 0.708236
0.1513232 0.06699375 0.04916783 0.6787498 -0.7014176 0.2175136 0.840108 0.739664
0.1591106 0.06699376 -2.366033e-08 0.7127448 -0.7014176 -0.00287712 0.850585 0.770206
0.1513232 0.06699377 -0.04916791 0.6549802 -0.6779571 -0.3337293 0.785478 0.396866
0.1472752 0.09428631 -0.1070017 0.6567115 -0.5816185 -0.480052 0.824553 0.379574
0.1070017 0.09428632 -0.1472752 0.476225 -0.5816187 -0.6594919 0.837520 0.345387
0.05625412 0.09428632 -0.1731323 0.2491233 -0.5816181 -0.7743759 0.843572 0.309904
2.914022e-08 0.09428632 -0.1820421 -0.002365107 -0.5816184 -0.8134583 0.841849 0.274293
-0.05625407 0.09428632 -0.1731323 -0.2536218 -0.5816181 -0.7729142 0.832110 0.240150
-0.1070016 0.09428632 -0.1472751 -0.4800523 -0.581618 -0.6567118 0.814746 0.209173
-0.1472751 0.09428631 -0.1070016 -0.6594918 -0.5816184 -0.4762254 0.790693 0.182827
-0.1731322 0.0942863 -0.05625409 -0.7743756 -0.5816186 -0.2491232 0.761260 0.162061
-0.182042 0.09428629 -2.008135e-08 -0.8134582 -0.5816186 0.002364803 0.727897 0.147083
-0.1472751 0.09428628 0.1070016 -0.6567122 -0.5816177 0.480052 0.938725 0.549747
-0.1731322 0.09428629 0.05625405 -0.7917153 -0.597882 0.1253956 0.691971 0.137294
-0.1070016 0.09428627 0.1472751 -0.4762254 -0.581618 0.6594921 0.904208 0.562967
-0.05625406 0.09428627 0.1731322 -0.2491234 -0.5816179 0.774376 0.873367 0.582276
2.371495e-08 0.09428627 0.182042 0.00236514 -0.5816181 0.8134585 0.847660 0.607537
0.0562541 0.09428627 0.1731322 0.2536218 -0.5816181 0.7729142 0.828455 0.637856
0.1070016 0.09428627 0.147275 0.4800523 -0.581618 0.6567118 0.816769 0.671800
0.1472751 0.09428628 0.1070016 0.659492 -0.5816174 0.4762264 0.813076 0.707673
0.1731323 0.09428629 0.05625404 0.7743762 -0.5816178 0.2491232 0.817213 0.743850
0.182042 0.09428629 -2.008135e-08 0.813459 -0.5816176 -0.00236415 0.828362 0.779098
0.1731324 0.0942863 -0.05625412 0.7409266 -0.5554324 -0.3775215 0.805999 0.411861
0.1622007 0.1248893 -0.1178457 0.7221301 -0.4482316 -0.5268935 0.846277 0.388481
0.1906784 0.1248893 -0.06195517 0.8083792 -0.4205586 -0.4118901 0.827192 0.424976
0.1178458 0.1248893 -0.1622007 0.5239678 -0.4482314 -0.7242558 0.860031 0.350200
0.06195518 0.1248893 -0.1906783 0.2745149 -0.4482321 -0.850723 0.866433 0.310316
2.914022e-08 0.1248893 -0.2004911 -0.001808171 -0.4482314 -0.8939157 0.864257 0.270079
-0.06195512 0.1248893 -0.1906783 -0.2779551 -0.4482314 -0.8496056 0.853126 0.231374
-0.1178456 0.1248893 -0.1622007 -0.526893 -0.448232 -0.7221302 0.833482 0.196219
-0.1622006 0.1248893 -0.1178457 -0.7242554 -0.4482326 -0.5239673 0.806464 0.166329
-0.1906783 0.1248893 -0.06195514 -0.8507227 -0.4482325 -0.2745152 0.773685 0.142736
-0.200491 0.1248893 -1.606825e-08 -0.8939154 -0.4482321 0.001807979 0.736907 0.125439
-0.1622006 0.1248893 0.1178456 -0.7221301 -0.4482315 0.5268934 0.930827 0.527365
-0.1906783 0.1248893 0.0619551 -0.8734955 -0.4667606 0.138348 0.697725 0.113078
-0.1178456 0.1248893 0.1622006 -0.5239677 -0.4482311 0.724256 0.892693 0.542746
-0.0619551 0.1248893 0.1906782 -0.2745156 -0.4482315 0.8507231 0.858296 0.564751
2.316513e-08 0.1248893 0.200491 0.001808168 -0.4482318 0.8939156 0.829404 0.593466
0.06195514 0.1248893 0.1906782 0.2779549 -0.4482317 0.8496056 0.807693 0.627906
0.1178457 0.1248893 0.1622006 0.5268931 -0.4482324 0.7221297 0.794389 0.666381
0.1622006 0.1248893 0.1178456 0.7242555 -0.4482322 0.5239674 0.790017 0.706875
0.1906783 0.1248893 0.06195509 0.8507231 -0.4482315 0.2745155 0.794274 0.747479
0.200491 0.1248893 -1.606825e-08 0.8939156 -0.4482317 -0.001807433 0.805971 0.786864
0.1731324 0.1580492 -0.125788 0.7782843 -0.2688706 -0.5674348 0.868150 0.396694
0.125788 0.1580493 -0.1731323 0.5648462 -0.2688689 -0.7801656 0.882638 0.354799
0.06613068 0.1580493 -0.2035293 0.296116 -0.2688693 -0.9165286 0.889383 0.310678
2.914022e-08 0.1580493 -0.2140033 -0.001600007 -0.2688693 -0.9631754 0.886751 0.265833
-0.06613063 0.1580493 -0.2035292 -0.2991592 -0.2688693 -0.9155398 0.874214 0.222537
-0.1257879 0.1580493 -0.1731323 -0.567434 -0.2688691 -0.7782854 0.852270 0.183185
-0.1731323 0.1580492 -0.125788 -0.7801652 -0.26887 -0.5648463 0.822300 0.149785
-0.2035292 0.1580492 -0.06613065 -0.9165283 -0.2688704 -0.2961158 0.786301 0.123510
-0.2140032 0.1580492 -1.171985e-08 -0.9631752 -0.2688701 0.001599759 0.746492 0.104214
-0.1731322 0.1580492 0.1257879 -0.7782845 -0.26887 0.5674348 0.922307 0.505337
-0.2035292 0.1580492 0.06613062 -0.9414959 -0.3022408 0.1491177 0.704818 0.089794
-0.1257879 0.1580492 0.1731322 -0.5648462 -0.2688701 0.7801652 0.880952 0.522595
-0.06613061 0.1580492 0.2035291 -0.2961162 -0.2688706 0.9165282 0.843127 0.547194
2.276243e-08 0.1580492 0.2140032 0.001599498 -0.2688704 0.9631751 0.811065 0.579353
0.06613065 0.1580492 0.2035291 0.2991592 -0.2688704 0.9155394 0.786838 0.617943
0.125788 0.1580492 0.1731322 0.567434 -0.2688697 0.7782851 0.771915 0.660976
0.1731323 0.1580492 0.1257879 0.7801654 -0.2688705 0.5648457 0.766882 0.706060
0.2035292 0.1580492 0.06613061 0.9165283 -0.2688704 0.296116 0.771281 0.750897
0.2140032 0.1580492 -1.171985e-08 0.9631752 -0.2688701 -0.001598975 0.783509 0.793914
0.2035293 0.1580492 -0.06613067 0.8673368 -0.2289654 -0.4419296 0.848715 0.436492
0.130633 0.210008 -0.1798008 0.6218645 -0.1564684 -0.7673345 0.915971 0.361794
-0.2113685 0.2100079 0.06867778 -0.9757828 -0.1547989 0.1545485 0.716675 0.057354
2.251678e-08 0.2100079 0.222246 -0.0520722 -0.1564696 0.9863092 0.784026 0.558457
0.06867781 0.2100079 0.2113685 0.2552635 -0.1564697 0.9541267 0.755996 0.603333
0.1798008 0.2100079 0.1306329 0.7673338 -0.1564681 0.6218655 0.732754 0.705269
0.2113686 0.2100079 -0.06867782 0.8802666 -0.1547983 -0.4485178 0.880359 0.451324
0.1798009 0.2100079 -0.130633 0.8285482 -0.1564683 -0.5376111 0.900382 0.408522
0.130633 0.7899919 -0.1798008 0.5443151 0 -0.8388808 0.009804 0.123926
0.06867784 0.210008 -0.2113685 0.3543101 -0.1564671 -0.9219449 0.923272 0.311422
0.06867784 0.7899919 -0.2113685 0.2584462 0 -0.9660257 0.009804 0.169816
2.914022e-08 0.210008 -0.222246 0.05207171 -0.1564674 -0.9863096 0.919982 0.259629
-0.06867779 0.210008 -0.2113685 -0.2552631 -0.1564682 -0.9541271 0.905307 0.209387
-0.06867779 0.7899919 -0.2113685 -0.3587286 4.629035e-08 -0.9334419 0.009804 0.261594
-0.1306329 0.210008 -0.1798008 -0.5376109 -0.1564685 -0.8285483 0.879837 0.163714
-0.1306329 0.7899919 -0.1798007 -0.6296206 1.258855e-07 -0.7769027 0.009804 0.307483
-0.1798008 0.2100079 -0.1306329 -0.7673336 -0.1564678 -0.6218657 0.845355 0.125110
-0.2113685 0.2100079 -0.06867779 -0.9219449 -0.1564679 -0.3543097 0.804566 0.095042
-0.2113685 0.7899919 -0.06867772 -0.9660257 3.069861e-08 -0.2584464 0.009804 0.399262
-0.222246 0.2100079 -4.906288e-09 -0.9863093 -0.156469 -0.05207178 0.760683 0.073336
-0.222246 0.7899919 7.114944e-08 -0.9986093 -6.095427e-09 0.05272147 0.009804 0.445151
-0.1798007 0.2100079 0.1306329 -0.8285477 -0.1564686 0.5376117 0.909543 0.473062
-0.1798007 0.7899919 0.130633 -0.7769028 -9.705864e-08 0.6296206 0.009804 0.536929
-0.1306329 0.2100079 0.1798007 -0.6218655 -0.1564687 0.7673336 0.863801 0.492742
-0.06867776 0.2100079 0.2113685 -0.3543101 -0.1564694 0.9219445 0.820886 0.521126
-0.06867776 0.7899919 0.2113685 -0.2584463 0 0.9660257 0.009804 0.628708
2.251678e-08 0.7899919 0.222246 0.05272143 0 0.9986093 0.009804 0.674597
0.1306329 0.2100079 0.1798007 0.537611 -0.1564683 0.8285483 0.738676 0.653280
0.2113685 0.2100079 0.06867776 0.9219449 -0.1564683 0.3543097 0.737514 0.756273
0.2113685 0.7899919 0.06867784 0.9660257 -3.598415e-08 0.2584463 0.009804 0.858154
0.222246 0.2100079 -4.906288e-09 0.9863092 -0.156469 0.0520723 0.750666 0.803984
0.222246 0.7899919 7.114944e-08 0.9986094 6.095294e-09 -0.0527204 0.009804 0.904043
0.2113686 0.7899919 -0.06867775 0.8910067 6.123643e-08 -0.4539902 0.009804 0.032148
0.1798009 0.7899919 -0.1306329 0.7769028 6.03224e-08 -0.6296206 0.009804 0.078037
0.1731324 0.8419507 -0.1257879 0.7801654 0.2688697 -0.5648461 0.664019 0.522309
0.2035293 0.8419507 -0.06613059 0.8493356 0.302241 -0.4327581 0.649037 0.480725
0.125788 0.8419507 -0.1731322 0.5674339 0.2688694 -0.7782854 0.674023 0.565507
0.06613068 0.8419507 -0.2035291 0.299159 0.2688702 -0.9155396 0.676185 0.610124
2.914022e-08 0.7899919 -0.222246 -0.05272142 0 -0.9986093 0.009804 0.215705
2.914022e-08 0.8419507 -0.2140032 0.001599493 0.2688699 -0.9631752 0.668995 0.654524
-0.06613063 0.8419507 -0.2035291 -0.2961163 0.2688701 -0.9165282 0.652110 0.696410
-0.1257879 0.8419507 -0.1731322 -0.5648459 0.2688698 -0.7801654 0.626230 0.733439
-0.1798008 0.7899919 -0.1306328 -0.8388807 8.806569e-08 -0.5443153 0.009804 0.353373
-0.1731323 0.8419507 -0.1257879 -0.7782848 0.2688698 -0.5674345 0.592905 0.763718
-0.2035292 0.8419507 -0.06613056 -0.9155401 0.2688693 -0.2991585 0.554244 0.786227
-0.2140032 0.8419507 7.796302e-08 -0.9631753 0.2688696 -0.001599738 0.512445 0.801294
-0.2113685 0.7899919 0.06867785 -0.9334418 -4.737122e-08 0.3587289 0.009804 0.491040
-0.2035292 0.8419507 0.06613071 -0.96145 0.2289654 0.1522783 0.469169 0.811183
-0.1731322 0.8419507 0.125788 -0.7801651 0.2688687 0.5648468 0.559486 0.417932
-0.1306329 0.7899919 0.1798008 -0.5443155 -8.302658e-08 0.8388806 0.009804 0.582819
-0.1257879 0.8419507 0.1731323 -0.5674347 0.2688697 0.7782847 0.521995 0.394245
-0.06613061 0.8419507 0.2035293 -0.2991591 0.2688695 0.9155397 0.489084 0.364034
2.276243e-08 0.8419507 0.2140033 -0.001599 0.2688686 0.9631756 0.462976 0.327402
0.06867781 0.7899919 0.2113685 0.3587288 -4.629036e-08 0.9334419 0.009804 0.720487
0.06613065 0.8419507 0.2035292 0.2961161 0.2688693 0.9165285 0.445532 0.285741
0.1306329 0.7899919 0.1798008 0.6296198 -1.197629e-07 0.7769034 0.009804 0.766376
0.125788 0.8419507 0.1731323 0.5648461 0.2688693 0.7801656 0.437899 0.241207
0.1798008 0.7899919 0.130633 0.8388807 -8.1943e-08 0.5443155 0.009804 0.812265
0.1731323 0.8419507 0.125788 0.7782848 0.2688698 0.5674345 0.440308 0.196241
0.2035292 0.8419507 0.0661307 0.9155401 0.2688693 0.2991585 0.451976 0.153047
0.2140032 0.8419507 7.796302e-08 0.9631753 0.2688696 0.001600545 0.471107 0.112940
0.1622007 0.8751107 -0.1178456 0.7242558 0.4482319 -0.5239674 0.641430 0.528191
0.1178458 0.8751107 -0.1622006 0.526893 0.4482313 -0.7221305 0.651086 0.567766
0.06195518 0.8751107 -0.1906782 0.2779548 0.4482313 -0.8496057 0.653314 0.608185
2.914022e-08 0.8751107 -0.200491 0.001808174 0.4482316 -0.8939157 0.647003 0.648073
-0.06195512 0.8751107 -0.1906782 -0.2745158 0.4482316 -0.8507229 0.631945 0.685522
-0.1178456 0.8751107 -0.1622006 -0.5239675 0.4482318 -0.7242557 0.608759 0.718566
-0.1622006 0.8751107 -0.1178456 -0.7221297 0.4482323 -0.5268932 0.578742 0.745588
-0.1906783 0.8751107 -0.06195503 -0.8496051 0.4482325 -0.2779546 0.543602 0.765697
-0.200491 0.8751107 8.231142e-08 -0.8939155 0.4482318 -0.001808002 0.505085 0.779063
-0.1622006 0.8751107 0.1178458 -0.7242557 0.448231 0.5239683 0.571414 0.397865
-0.1906783 0.8751107 0.06195521 -0.8960957 0.4205582 0.1419271 0.464605 0.787146
-0.1178456 0.8751107 0.1622007 -0.526893 0.4482307 0.7221308 0.536719 0.376509
-0.0619551 0.8751107 0.1906783 -0.2779552 0.4482322 0.8496051 0.506713 0.349331
2.316513e-08 0.8751107 0.2004911 -0.001807902 0.4482318 0.8939155 0.483153 0.316526
0.06195514 0.8751107 0.1906783 0.2745157 0.4482316 0.850723 0.467528 0.279304
0.1178457 0.8751107 0.1622007 0.5239673 0.448232 0.7242557 0.460782 0.239500
0.1622006 0.8751107 0.1178457 0.7221302 0.4482316 0.5268932 0.463128 0.199175
0.1906783 0.8751107 0.0619552 0.8496054 0.4482318 0.2779547 0.473980 0.160164
0.200491 0.8751107 8.231142e-08 0.8939157 0.4482315 0.001809011 0.491974 0.123574
0.1906784 0.8751107 -0.06195506 0.7879921 0.4667594 -0.4015025 0.626410 0.489848
0.1472752 0.9057137 -0.1070016 0.6594917 0.5816182 -0.4762257 0.618875 0.534786
0.1731324 0.9057137 -0.05625401 0.7142166 0.5978821 -0.3639118 0.603900 0.500601
0.1070017 0.9057137 -0.1472751 0.4800519 0.5816183 -0.6567118 0.628191 0.570237
0.05625412 0.9057137 -0.1731322 0.2536213 0.5816178 -0.7729146 0.630518 0.606266
2.914022e-08 0.9057137 -0.182042 0.002365126 0.5816182 -0.8134585 0.625106 0.641611
-0.05625407 0.9057137 -0.1731322 -0.2491239 0.5816177 -0.774376 0.611871 0.674653
-0.1070016 0.9057137 -0.147275 -0.476226 0.581618 -0.6594918 0.591369 0.703739
-0.1472751 0.9057137 -0.1070015 -0.6567118 0.5816183 -0.480052 0.564675 0.727496
-0.1731322 0.9057137 -0.05625399 -0.7729141 0.5816185 -0.2536216 0.533188 0.745109
-0.182042 0.9057137 8.632452e-08 -0.8134583 0.5816185 -0.002364848 0.498359 0.756512
-0.1731322 0.9057137 0.05625416 -0.8213235 0.5554328 0.1300851 0.461497 0.762360
-0.1472751 0.9057137 0.1070017 -0.6594916 0.5816187 0.4762253 0.582817 0.377315
-0.1070016 0.9057137 0.1472752 -0.4800519 0.581618 0.6567121 0.551264 0.358653
-0.05625406 0.9057137 0.1731323 -0.2536216 0.5816178 0.7729146 0.524275 0.334666
2.371495e-08 0.9057137 0.1820421 -0.002365109 0.5816182 0.8134584 0.503270 0.305724
0.0562541 0.9057137 0.1731323 0.249124 0.5816177 0.774376 0.489448 0.272919
0.1070016 0.9057137 0.1472751 0.4762255 0.5816181 0.6594921 0.483576 0.237816
0.1472751 0.9057137 0.1070017 0.6567118 0.5816178 0.4800526 0.485854 0.202150
0.1731323 0.9057137 0.05625415 0.7729148 0.5816174 0.2536217 0.495863 0.167483
0.182042 0.9057137 8.632452e-08 0.8134587 0.5816179 0.002365449 0.512615 0.134883
0.1287232 0.9330062 -0.09352278 0.5783139 0.7014177 -0.416613 0.596433 0.542504
0.0935229 0.9330062 -0.1287231 0.4212686 0.7014177 -0.5749314 0.605314 0.573262
0.04916791 0.9330062 -0.1513231 0.2229865 0.7014174 -0.6769717 0.607727 0.604581
2.914022e-08 0.9330062 -0.1591105 0.002877499 0.7014174 -0.7127449 0.603232 0.635225
-0.04916785 0.9330062 -0.1513231 -0.2175139 0.7014175 -0.6787497 0.591853 0.663784
-0.09352284 0.9330062 -0.1287231 -0.4166135 0.7014173 -0.578314 0.574090 0.688860
-0.1287231 0.9330062 -0.09352274 -0.5749319 0.7014172 -0.4212686 0.550843 0.709276
-0.1513231 0.9330062 -0.04916777 -0.6769717 0.7014173 -0.2229866 0.523277 0.724250
-0.1591105 0.9330062 8.990349e-08 -0.712745 0.7014175 -0.002877499 0.492660 0.733467
-0.1287231 0.9330062 0.09352293 -0.5783141 0.7014173 0.4166132 0.593350 0.356045
-0.1513231 0.9330062 0.04916795 -0.726052 0.6779562 0.1149953 0.460277 0.736915
-0.09352281 0.9330062 0.1287232 -0.4212686 0.7014175 0.5749315 0.565406 0.340415
-0.04916784 0.9330062 0.1513232 -0.2229868 0.7014172 0.6769718 0.541668 0.319838
2.439836e-08 0.9330062 0.1591106 -0.002877249 0.7014171 0.7127452 0.523316 0.294884
0.04916788 0.9330062 0.1513232 0.2175139 0.7014173 0.67875 0.511327 0.266572
0.09352285 0.9330062 0.1287232 0.4166134 0.701417 0.5783144 0.506327 0.236248
0.1287232 0.9330062 0.09352291 0.5749313 0.7014173 0.4212694 0.508504 0.205382
0.1513232 0.9330062 0.04916794 0.6769719 0.7014171 0.2229869 0.517579 0.175348
0.1591106 0.9330062 8.990349e-08 0.7127454 0.7014169 0.002877314 0.532872 0.147265
0.1513232 0.9330062 -0.0491678 0.6224216 0.7155515 -0.3171396 0.581819 0.513310
0.1070017 0.9563163 -0.07774115 0.4824668 0.8045008 -0.3464165 0.574202 0.551694
0.125788 0.9563163 -0.0408709 0.5143886 0.816524 -0.2620938 0.560522 0.528165
0.07774129 0.9563163 -0.1070016 0.3518043 0.8045008 -0.4785523 0.582432 0.577169
0.04087102 0.9563163 -0.1257879 0.1867048 0.8045007 -0.5638438 0.584870 0.603352
2.914022e-08 0.9563163 -0.1322612 0.003329791 0.8045009 -0.5939422 0.581310 0.629016
-0.04087096 0.9563163 -0.1257879 -0.1803716 0.8045009 -0.5659015 0.571857 0.652905
-0.07774121 0.9563163 -0.1070015 -0.3464168 0.8045009 -0.4824663 0.556963 0.673823
-0.1070016 0.9563163 -0.07774114 -0.4785523 0.8045008 -0.3518043 0.537389 0.690750
-0.1257879 0.9563163 -0.04087089 -0.5638441 0.8045005 -0.1867051 0.514130 0.702920
-0.1322612 0.9563163 9.296026e-08 -0.5939428 0.8045004 -0.00332964 0.488332 0.709819
-0.1070016 0.9563163 0.07774132 -0.4824668 0.8045007 0.3464166 0.602699 0.333877
-0.1257879 0.9563163 0.04087107 -0.6120521 0.7848535 0.09693923 0.461284 0.711005
-0.0777412 0.9563163 0.1070017 -0.3518044 0.8045006 0.4785525 0.578933 0.321547
-0.04087095 0.9563163 0.125788 -0.1867055 0.8045006 0.5638438 0.558787 0.304640
2.519853e-08 0.9563163 0.1322614 -0.003329627 0.8045005 0.5939427 0.543273 0.283885
0.040871 0.9563163 0.125788 0.1803717 0.8045005 0.565902 0.533198 0.260249
0.07774124 0.9563163 0.1070017 0.3464168 0.8045006 0.4824667 0.529081 0.234899
0.1070016 0.9563163 0.0777413 0.4785519 0.8045008 0.3518046 0.531099 0.209097
0.125788 0.9563163 0.04087106 0.5638434 0.804501 0.1867052 0.539083 0.184086
0.1322613 0.9563163 9.296026e-08 0.5939423 0.8045008 0.003329956 0.552579 0.161040
0.08264543 0.9750699 -0.06004529 0.3741447 0.8880272 -0.2672517 0.552317 0.562660
0.06004542 0.9750699 -0.08264529 0.2732473 0.8880273 -0.3697885 0.559529 0.582289
0.03156775 0.9750699 -0.09715537 0.1456026 0.8880273 -0.4361279 0.561864 0.602826
2.914022e-08 0.9750699 -0.1021552 0.003705544 0.8880272 -0.4597761 0.559254 0.623101
-0.0315677 0.9750699 -0.09715537 -0.1385544 0.8880272 -0.4384181 0.551844 0.642001
-0.06004535 0.9750699 -0.08264527 -0.267252 0.8880271 -0.3741447 0.540035 0.658503
-0.08264533 0.9750699 -0.06004528 -0.3697887 0.8880271 -0.2732475 0.524474 0.671720
-0.09715542 0.9750699 -0.03156762 -0.436128 0.8880271 -0.145603 0.506015 0.680924
-0.1021553 0.9750699 9.541949e-08 -0.4597764 0.888027 -0.003705534 0.485698 0.685515
-0.09715542 0.9750699 0.03156781 -0.4817285 0.8729927 0.07629859 0.464764 0.684909
-0.08264533 0.9750699 0.06004544 -0.3741449 0.8880271 0.2672518 0.610552 0.310689
-0.06004534 0.9750699 0.08264544 -0.2732475 0.8880272 0.3697887 0.591621 0.301801
-0.03156769 0.9750699 0.09715552 -0.145603 0.8880271 0.4361281 0.575518 0.288837
2.609576e-08 0.9750699 0.1021554 -0.003705674 0.8880272 0.4597761 0.563118 0.272583
0.03156774 0.9750699 0.09715552 0.1385549 0.888027 0.4384182 0.555099 0.253930
0.06004538 0.9750699 0.08264543 0.2672518 0.8880271 0.3741449 0.551893 0.233891
0.08264537 0.9750699 0.06004544 0.3697888 0.888027 0.2732476 0.553666 0.213549
0.09715546 0.9750699 0.0315678 0.4361279 0.8880272 0.145603 0.560322 0.194023
0.1021553 0.9750699 9.541949e-08 0.459776 0.8880273 0.003705968 0.571542 0.176472
0.09715552 0.9750699 -0.03156764 0.3924876 0.8977531 -0.1999825 0.540389 0.545240
0.05625413 0.9888051 -0.0408709 0.2559823 0.9495752 -0.1810526 0.530961 0.575683
0.04087102 0.9888051 -0.056254 0.1875054 0.9495752 -0.2512941 0.536608 0.588986
0.02148718 0.9888051 -0.06613056 0.100674 0.9495752 -0.2969373 0.538615 0.603299
2.914022e-08 0.9888051 -0.06953378 0.003988114 0.9495752 -0.3135141 0.536953 0.617628
-0.02148712 0.9888051 -0.06613056 -0.09308832 0.9495752 -0.2994021 0.531757 0.631054
-0.04087096 0.9888051 -0.05625399 -0.1810526 0.9495752 -0.2559824 0.523357 0.642741
-0.05625407 0.9888051 -0.04087089 -0.2512942 0.9495751 -0.1875054 0.512277 0.651953
-0.06613061 0.9888051 -0.02148705 -0.2969374 0.9495751 -0.1006741 0.499223 0.658068
-0.06953383 0.9888051 9.722064e-08 -0.313514 0.9495752 -0.003988161 0.485070 0.660559
-0.06613061 0.9888051 0.02148725 -0.3381579 0.9395641 0.05355905 0.470870 0.658970
-0.05625406 0.9888051 0.04087107 -0.2559825 0.9495751 0.1810527 0.616583 0.286410
-0.04087095 0.9888051 0.05625417 -0.1875055 0.9495752 0.2512942 0.603212 0.280920
-0.02148712 0.9888051 0.06613073 -0.1006741 0.9495751 0.2969374 0.591720 0.272153
2.706795e-08 0.9888051 0.06953396 -0.003988151 0.9495752 0.3135141 0.582827 0.260793
0.02148717 0.9888051 0.06613072 0.09308842 0.9495751 0.2994021 0.577081 0.247591
0.040871 0.9888051 0.05625417 0.1810527 0.9495751 0.2559825 0.574837 0.233373
0.0562541 0.9888051 0.04087106 0.2512943 0.9495751 0.1875056 0.576239 0.219030
0.06613066 0.9888051 0.02148724 0.2969374 0.9495751 0.1006741 0.581223 0.205502
0.06953388 0.9888051 9.722064e-08 0.3135142 0.9495752 0.003988393 0.589537 0.193778
0.0661307 0.9888051 -0.02148706 0.2596985 0.9565811 -0.1323231 0.521817 0.564502
0.02847769 0.9971839 -0.02069013 0.1457241 0.9846012 -0.09656603 0.510373 0.591017
0.03347753 0.9971839 -0.0108774 0.1432965 0.9869829 -0.07301329 0.505198 0.585798
0.02069026 0.9971839 -0.02847756 0.1087514 0.9846012 -0.136871 0.513698 0.597681
0.01087753 0.9971839 -0.0334774 0.06113322 0.9846012 -0.163778 0.515004 0.605147
2.914022e-08 0.9971839 -0.03520022 0.007530932 0.9846012 -0.1746534 0.514246 0.612796
-0.01087747 0.9971839 -0.0334774 -0.04680849 0.9846012 -0.1684324 0.511500 0.620036
-0.0206902 0.9971839 -0.02847755 -0.09656613 0.9846012 -0.1457241 0.506973 0.626318
-0.02847762 0.9971839 -0.02069012 -0.136871 0.9846012 -0.1087514 0.501010 0.631155
-0.03347746 0.9971839 -0.01087739 -0.163778 0.9846012 -0.06113324 0.494075 0.634151
-0.03520029 0.9971839 9.83194e-08 -0.1746534 0.9846012 -0.007530954 0.486734 0.635013
-0.03347746 0.9971839 0.01087759 -0.1850598 0.9822901 0.02931063 0.479623 0.633566
-0.02847762 0.9971839 0.02069032 -0.1457242 0.9846012 0.09656604 0.620442 0.261029
-0.02069019 0.9971839 0.02847775 -0.1087514 0.9846012 0.136871 0.613391 0.258627
-0.01087747 0.9971839 0.03347758 -0.06113321 0.9846012 0.1637781 0.607213 0.254236
2.809118e-08 0.9971839 0.0352004 -0.007530922 0.9846012 0.1746534 0.602373 0.248263
0.01087752 0.9971839 0.03347757 0.04680852 0.9846012 0.1684325 0.599235 0.241183
0.02069025 0.9971839 0.02847774 0.09656601 0.9846012 0.1457242 0.598038 0.233532
0.02847767 0.9971839 0.02069032 0.136871 0.9846012 0.1087514 0.598877 0.225899
0.03347751 0.9971839 0.01087759 0.1637781 0.9846012 0.06113327 0.601702 0.218892
0.03520033 0.9971839 9.83194e-08 0.1746535 0.9846012 0.007531055 0.606317 0.213116
2.914022e-08 3.869088e-16 -3.244551e-08 -0.01597876 -0.9986622 -0.04917767 0.705183 0.292936
2.914022e-08 1 9.868868e-08 -0.01597892 0.9986622 -0.04917803 0.490809 0.608868
-0.03347746 0.002816051 0.01087746 -0.166945 -0.9822901 0.0850627 0.963719 0.672661
-0.06613061 0.01119488 0.02148712 -0.305058 -0.9395636 0.1554349 0.971272 0.646636
0.03347753 0.002816054 -0.01087753 0.1588455 -0.9869829 -0.02515849 0.940334 0.722053
0.0661307 0.01119489 -0.02148719 0.2878793 -0.9565807 -0.04559498 0.924653 0.744333
-0.09715542 0.02493018 0.03156769 -0.434573 -0.8729931 0.221426 0.976131 0.620202
0.09715552 0.02493019 -0.03156776 0.4350767 -0.8977527 -0.06890871 0.906904 0.764660
-0.1257879 0.04368372 0.04087095 -0.5521399 -0.7848539 0.281329 0.978338 0.593742
0.125788 0.04368373 -0.04087102 0.5702034 -0.8165243 -0.09031087 0.887473 0.782863
-0.1513231 0.06699375 0.04916783 -0.6549808 -0.6779566 0.333729 0.978062 0.567592
0.1513232 0.06699377 -0.04916791 0.6899591 -0.715552 -0.1092786 0.866759 0.798887
-0.1731322 0.09428629 0.05625405 -0.7409272 -0.5554323 0.3775207 0.975567 0.542020
0.1731324 0.0942863 -0.05625412 0.791716 -0.5978814 -0.1253938 0.845149 0.812788
-0.1906783 0.1248893 0.0619551 -0.8083789 -0.4205586 0.4118907 0.971202 0.517208
0.1906784 0.1248893 -0.06195517 0.8734962 -0.4667598 -0.138346 0.823009 0.824741
-0.2035292 0.1580492 0.06613062 -0.867336 -0.2289657 0.4419311 0.965409 0.493221
0.2035293 0.1580492 -0.06613067 0.9414961 -0.3022407 -0.1491161 0.800670 0.835057
-0.2113685 0.2100079 0.06867778 -0.880266 -0.1547984 0.4485191 0.955306 0.459368
0.2113686 0.2100079 -0.06867782 0.9757831 -0.1547989 -0.154547 0.768219 0.847938
0.1798009 0.2100079 -0.130633 0.8388807 7.801197e-08 -0.5443154 0.386351 0.078037
0.2113686 0.2100079 -0.06867782 0.8910067 5.248836e-08 -0.4539901 0.386351 0.032148
0.130633 0.210008 -0.1798008 0.6296199 3.673628e-08 -0.7769033 0.386351 0.123926
0.06867784 0.210008 -0.2113685 0.3587281 0 -0.9334421 0.386351 0.169816
2.914022e-08 0.210008 -0.222246 0.05272143 0 -0.9986093 0.386351 0.215705
-0.06867779 0.210008 -0.2113685 -0.2584463 0 -0.9660257 0.386351 0.261594
-0.1306329 0.210008 -0.1798008 -0.5443156 8.302659e-08 -0.8388805 0.386351 0.307483
-0.1798008 0.2100079 -0.1306329 -0.776903 1.071123e-07 -0.6296204 0.386351 0.353373
-0.2113685 0.2100079 -0.06867779 -0.933442 5.130217e-08 -0.3587284 0.386351 0.399262
-0.222246 0.2100079 -4.906288e-09 -0.9986093 6.095424e-09 -0.05272145 0.386351 0.445151
-0.2113685 0.2100079 0.06867778 -0.9660255 -3.069864e-08 0.2584467 0.386351 0.491040
-0.1798007 0.2100079 0.1306329 -0.8388804 -7.801203e-08 0.5443159 0.386351 0.536929
-0.1306329 0.2100079 0.1798007 -0.6296206 -1.197628e-07 0.7769028 0.386351 0.582819
-0.06867776 0.2100079 0.2113685 -0.3587286 -4.629035e-08 0.9334419 0.386351 0.628708
2.251678e-08 0.2100079 0.222246 -0.05272146 0 0.9986093 0.386351 0.674597
0.06867781 0.2100079 0.2113685 0.2584468 0 0.9660255 0.386351 0.720486
0.1306329 0.2100079 0.1798007 0.5443155 -8.302663e-08 0.8388807 0.386351 0.766376
0.1798008 0.2100079 0.1306329 0.7769027 -9.705867e-08 0.6296207 0.386351 0.812265
0.2113685 0.2100079 0.06867776 0.9334421 -5.265668e-08 0.3587282 0.386351 0.858154
0.222246 0.2100079 -4.906288e-09 0.9986093 -7.450034e-09 0.052722 0.386351 0.904043
0.2113686 0.2100079 -0.06867782 0.9876885 1.929992e-08 -0.1564331 0.386351 0.949933
0.2113686 0.7899919 -0.06867775 0.9876886 1.808611e-08 -0.1564331 0.009804 0.949933
0.2113686 0.7899919 -0.06867775 0.8802665 0.1547982 -0.4485179 0.681804 0.469557
0.1798009 0.7899919 -0.1306329 0.7673336 0.1564687 -0.6218655 0.697036 0.513944
0.130633 0.7899919 -0.1798008 0.5376107 0.1564696 -0.8285481 0.707725 0.561835
0.06867784 0.7899919 -0.2113685 0.255263 0.1564695 -0.9541269 0.709943 0.612578
2.914022e-08 0.7899919 -0.222246 -0.05207217 0.1564693 -0.9863092 0.701535 0.663772
-0.06867779 0.7899919 -0.2113685 -0.3543102 0.1564692 -0.9219446 0.681938 0.712387
-0.1306329 0.7899919 -0.1798007 -0.6218653 0.156468 -0.7673339 0.651984 0.755456
-0.1798008 0.7899919 -0.1306328 -0.8285484 0.1564674 -0.5376109 0.613654 0.790621
-0.2113685 0.7899919 -0.06867772 -0.9541271 0.1564684 -0.2552628 0.569768 0.816630
-0.222246 0.7899919 7.114944e-08 -0.9863093 0.1564688 0.05207179 0.523506 0.833881
-0.2113685 0.7899919 0.06867785 -0.9757829 0.154798 0.154549 0.477516 0.845202
-0.2113685 0.7899919 0.06867785 -0.880266 0.1547981 0.4485191 0.583930 0.467954
-0.1798007 0.7899919 0.130633 -0.7673337 0.1564683 0.6218655 0.541886 0.447098
-0.2035292 0.8419507 0.06613071 -0.8493356 0.3022397 0.432759 0.599381 0.436971
-0.1306329 0.7899919 0.1798008 -0.5376113 0.1564676 0.8285481 0.500608 0.420555
-0.06867776 0.7899919 0.2113685 -0.2552627 0.1564666 0.9541274 0.463350 0.386027
2.251678e-08 0.7899919 0.222246 0.05207221 0.1564677 0.9863095 0.433332 0.343706
0.06867781 0.7899919 0.2113685 0.3543097 0.1564678 0.9219449 0.413084 0.295352
0.1306329 0.7899919 0.1798008 0.6218652 0.1564674 0.7673342 0.404101 0.243659
0.1798008 0.7899919 0.130633 0.8285482 0.156468 0.5376111 0.406634 0.191698
0.2113685 0.7899919 0.06867784 0.9541272 0.1564684 0.2552627 0.419556 0.142341
0.222246 0.7899919 7.114944e-08 0.9863094 0.1564688 -0.0520707 0.440327 0.097542
0.2113686 0.7899919 -0.06867775 0.9757831 0.154798 -0.1545475 0.465073 0.057152
0.2035293 0.8419507 -0.06613059 0.9614503 0.2289655 -0.1522768 0.494931 0.075476
-0.1906783 0.8751107 0.06195521 -0.7879919 0.4667602 0.4015017 0.609058 0.414572
0.1906784 0.8751107 -0.06195506 0.8960963 0.4205574 -0.1419256 0.515079 0.089362
-0.1731322 0.9057137 0.05625416 -0.7142169 0.597882 0.3639111 0.617505 0.391096
0.1731324 0.9057137 -0.05625401 0.8213239 0.5554327 -0.1300826 0.534718 0.104803
-0.1513231 0.9330062 0.04916795 -0.6224222 0.7155509 0.3171398 0.624272 0.366531
0.1513232 0.9330062 -0.0491678 0.7260522 0.6779562 -0.1149944 0.553478 0.122042
-0.1257879 0.9563163 0.04087107 -0.5143886 0.8165238 0.2620939 0.628973 0.340991
0.125788 0.9563163 -0.0408709 0.6120521 0.7848535 -0.09693917 0.570981 0.141177
-0.09715542 0.9750699 0.03156781 -0.3924877 0.8977529 0.1999827 0.631284 0.314691
0.09715552 0.9750699 -0.03156764 0.4817281 0.872993 -0.07629756 0.586856 0.162182
-0.06613061 0.9888051 0.02148725 -0.2596986 0.956581 0.132323 0.630948 0.287933
0.0661307 0.9888051 -0.02148706 0.3381581 0.939564 -0.05355824 0.600753 0.184924
-0.03347746 0.9971839 0.01087759 -0.1432966 0.9869829 0.0730133 0.627792 0.261101
0.03347753 0.9971839 -0.0108774 0.1850598 0.9822901 -0.02931016 0.612391 0.209145
2.914022e-08 3.869088e-16 -3.244551e-08 0.01597876 -0.9986622 0.04917746 0.953681 0.698098
2.914022e-08 1 9.868868e-08 0.01597892 0.9986622 0.04917807 0.621804 0.234576
3 38 0 1 
3 1 39 38 
3 0 2 3 
3 3 1 0 
3 2 4 5 
3 5 3 2 
3 4 6 7 
3 7 5 4 
3 6 8 9 
3 9 7 6 
3 8 10 11 
3 11 9 8 
3 10 12 13 
3 13 11 10 
3 12 14 15 
3 15 13 12 
3 14 16 17 
3 17 15 14 
3 16 18 21 
3 21 17 16 
3 362 19 20 
3 20 363 362 
3 19 22 23 
3 23 20 19 
3 22 24 25 
3 25 23 22 
3 24 26 27 
3 27 25 24 
3 26 28 29 
3 29 27 26 
3 28 30 31 
3 31 29 28 
3 30 32 33 
3 33 31 30 
3 32 34 35 
3 35 33 32 
3 34 36 37 
3 37 35 34 
3 36 364 365 
3 365 37 36 
3 39 1 40 
3 40 41 39 
3 1 3 42 
3 42 40 1 
3 3 5 43 
3 43 42 3 
3 5 7 44 
3 44 43 5 
3 7 9 45 
3 45 44 7 
3 9 11 46 
3 46 45 9 
3 11 13 47 
3 47 46 11 
3 13 15 48 
3 48 47 13 
3 15 17 49 
3 49 48 15 
3 17 21 50 
3 50 49 17 
3 363 20 51 
3 51 366 363 
3 20 23 52 
3 52 51 20 
3 23 25 53 
3 53 52 23 
3 25 27 54 
3 54 53 25 
3 27 29 55 
3 55 54 27 
3 29 31 56 
3 56 55 29 
3 31 33 57 
3 57 56 31 
3 33 35 58 
3 58 57 33 
3 35 37 59 
3 59 58 35 
3 37 365 367 
3 367 59 37 
3 41 40 60 
3 60 79 41 
3 40 42 61 
3 61 60 40 
3 42 43 62 
3 62 61 42 
3 43 44 63 
3 63 62 43 
3 44 45 64 
3 64 63 44 
3 45 46 65 
3 65 64 45 
3 46 47 66 
3 66 65 46 
3 47 48 67 
3 67 66 47 
3 48 49 68 
3 68 67 48 
3 49 50 70 
3 70 68 49 
3 366 51 69 
3 69 368 366 
3 51 52 71 
3 71 69 51 
3 52 53 72 
3 72 71 52 
3 53 54 73 
3 73 72 53 
3 54 55 74 
3 74 73 54 
3 55 56 75 
3 75 74 55 
3 56 57 76 
3 76 75 56 
3 57 58 77 
3 77 76 57 
3 58 59 78 
3 78 77 58 
3 59 367 369 
3 369 78 59 
3 79 60 80 
3 80 99 79 
3 60 61 81 
3 81 80 60 
3 61 62 82 
3 82 81 61 
3 62 63 83 
3 83 82 62 
3 63 64 84 
3 84 83 63 
3 64 65 85 
3 85 84 64 
3 65 66 86 
3 86 85 65 
3 66 67 87 
3 87 86 66 
3 67 68 88 
3 88 87 67 
3 68 70 89 
3 89 88 68 
3 368 69 90 
3 90 370 368 
3 69 71 91 
3 91 90 69 
3 71 72 92 
3 92 91 71 
3 72 73 93 
3 93 92 72 
3 73 74 94 
3 94 93 73 
3 74 75 95 
3 95 94 74 
3 75 76 96 
3 96 95 75 
3 76 77 97 
3 97 96 76 
3 77 78 98 
3 98 97 77 
3 78 369 371 
3 371 98 78 
3 99 80 100 
3 100 119 99 
3 80 81 101 
3 101 100 80 
3 81 82 102 
3 102 101 81 
3 82 83 103 
3 103 102 82 
3 83 84 104 
3 104 103 83 
3 84 85 105 
3 105 104 84 
3 85 86 106 
3 106 105 85 
3 86 87 107 
3 107 106 86 
3 87 88 108 
3 108 107 87 
3 88 89 110 
3 110 108 88 
3 370 90 109 
3 109 372 370 
3 90 91 111 
3 111 109 90 
3 91 92 112 
3 112 111 91 
3 92 93 113 
3 113 112 92 
3 93 94 114 
3 114 113 93 
3 94 95 115 
3 115 114 94 
3 95 96 116 
3 116 115 95 
3 96 97 117 
3 117 116 96 
3 97 98 118 
3 118 117 97 
3 98 371 373 
3 373 118 98 
3 119 100 120 
3 120 121 119 
3 100 101 122 
3 122 120 100 
3 101 102 123 
3 123 122 101 
3 102 103 124 
3 124 123 102 
3 103 104 125 
3 125 124 103 
3 104 105 126 
3 126 125 104 
3 105 106 127 
3 127 126 105 
3 106 107 128 
3 128 127 106 
3 107 108 129 
3 129 128 107 
3 108 110 131 
3 131 129 108 
3 372 109 130 
3 130 374 372 
3 109 111 132 
3 132 130 109 
3 111 112 133 
3 133 132 111 
3 112 113 134 
3 134 133 112 
3 113 114 135 
3 135 134 113 
3 114 115 136 
3 136 135 114 
3 115 116 137 
3 137 136 115 
3 116 117 138 
3 138 137 116 
3 117 118 139 
3 139 138 117 
3 118 373 375 
3 375 139 118 
3 121 120 140 
3 140 159 121 
3 120 122 141 
3 141 140 120 
3 122 123 142 
3 142 141 122 
3 123 124 143 
3 143 142 123 
3 124 125 144 
3 144 143 124 
3 125 126 145 
3 145 144 125 
3 126 127 146 
3 146 145 126 
3 127 128 147 
3 147 146 127 
3 128 129 148 
3 148 147 128 
3 129 131 150 
3 150 148 129 
3 374 130 149 
3 149 376 374 
3 130 132 151 
3 151 149 130 
3 132 133 152 
3 152 151 132 
3 133 134 153 
3 153 152 133 
3 134 135 154 
3 154 153 134 
3 135 136 155 
3 155 154 135 
3 136 137 156 
3 156 155 136 
3 137 138 157 
3 157 156 137 
3 138 139 158 
3 158 157 138 
3 139 375 377 
3 377 158 139 
3 159 140 166 
3 166 165 159 
3 140 141 160 
3 160 166 140 
3 141 142 168 
3 168 160 141 
3 142 143 170 
3 170 168 142 
3 143 144 171 
3 171 170 143 
3 144 145 173 
3 173 171 144 
3 145 146 175 
3 175 173 145 
3 146 147 176 
3 176 175 146 
3 147 148 178 
3 178 176 147 
3 148 150 161 
3 161 178 148 
3 376 149 180 
3 180 378 376 
3 149 151 182 
3 182 180 149 
3 151 152 183 
3 183 182 151 
3 152 153 162 
3 162 183 152 
3 153 154 163 
3 163 162 153 
3 154 155 186 
3 186 163 154 
3 155 156 164 
3 164 186 155 
3 156 157 187 
3 187 164 156 
3 157 158 189 
3 189 187 157 
3 158 377 379 
3 379 189 158 
3 380 192 191 
3 191 381 380 
3 382 167 192 
3 192 380 382 
3 383 169 167 
3 167 382 383 
3 384 197 169 
3 169 383 384 
3 385 172 197 
3 197 384 385 
3 386 174 172 
3 172 385 386 
3 387 201 174 
3 174 386 387 
3 388 177 201 
3 201 387 388 
3 389 179 177 
3 177 388 389 
3 390 205 179 
3 179 389 390 
3 391 181 205 
3 205 390 391 
3 392 208 181 
3 181 391 392 
3 393 184 208 
3 208 392 393 
3 394 185 184 
3 184 393 394 
3 395 212 185 
3 185 394 395 
3 396 214 212 
3 212 395 396 
3 397 216 214 
3 214 396 397 
3 398 188 216 
3 216 397 398 
3 399 190 188 
3 188 398 399 
3 400 401 190 
3 190 399 400 
3 402 403 193 
3 193 194 402 
3 403 404 195 
3 195 193 403 
3 404 405 196 
3 196 195 404 
3 405 406 198 
3 198 196 405 
3 406 407 199 
3 199 198 406 
3 407 408 200 
3 200 199 407 
3 408 409 202 
3 202 200 408 
3 409 410 203 
3 203 202 409 
3 410 411 204 
3 204 203 410 
3 411 412 206 
3 206 204 411 
3 413 414 207 
3 207 415 413 
3 414 416 209 
3 209 207 414 
3 416 417 210 
3 210 209 416 
3 417 418 211 
3 211 210 417 
3 418 419 213 
3 213 211 418 
3 419 420 215 
3 215 213 419 
3 420 421 217 
3 217 215 420 
3 421 422 218 
3 218 217 421 
3 422 423 219 
3 219 218 422 
3 423 424 425 
3 425 219 423 
3 194 193 220 
3 220 239 194 
3 193 195 221 
3 221 220 193 
3 195 196 222 
3 222 221 195 
3 196 198 223 
3 223 222 196 
3 198 199 224 
3 224 223 198 
3 199 200 225 
3 225 224 199 
3 200 202 226 
3 226 225 200 
3 202 203 227 
3 227 226 202 
3 203 204 228 
3 228 227 203 
3 204 206 230 
3 230 228 204 
3 415 207 229 
3 229 426 415 
3 207 209 231 
3 231 229 207 
3 209 210 232 
3 232 231 209 
3 210 211 233 
3 233 232 210 
3 211 213 234 
3 234 233 211 
3 213 215 235 
3 235 234 213 
3 215 217 236 
3 236 235 215 
3 217 218 237 
3 237 236 217 
3 218 219 238 
3 238 237 218 
3 219 425 427 
3 427 238 219 
3 239 220 240 
3 240 241 239 
3 220 221 242 
3 242 240 220 
3 221 222 243 
3 243 242 221 
3 222 223 244 
3 244 243 222 
3 223 224 245 
3 245 244 223 
3 224 225 246 
3 246 245 224 
3 225 226 247 
3 247 246 225 
3 226 227 248 
3 248 247 226 
3 227 228 249 
3 249 248 227 
3 228 230 250 
3 250 249 228 
3 426 229 251 
3 251 428 426 
3 229 231 252 
3 252 251 229 
3 231 232 253 
3 253 252 231 
3 232 233 254 
3 254 253 232 
3 233 234 255 
3 255 254 233 
3 234 235 256 
3 256 255 234 
3 235 236 257 
3 257 256 235 
3 236 237 258 
3 258 257 236 
3 237 238 259 
3 259 258 237 
3 238 427 429 
3 429 259 238 
3 241 240 260 
3 260 279 241 
3 240 242 261 
3 261 260 240 
3 242 243 262 
3 262 261 242 
3 243 244 263 
3 263 262 243 
3 244 245 264 
3 264 263 244 
3 245 246 265 
3 265 264 245 
3 246 247 266 
3 266 265 246 
3 247 248 267 
3 267 266 247 
3 248 249 268 
3 268 267 248 
3 249 250 270 
3 270 268 249 
3 428 251 269 
3 269 430 428 
3 251 252 271 
3 271 269 251 
3 252 253 272 
3 272 271 252 
3 253 254 273 
3 273 272 253 
3 254 255 274 
3 274 273 254 
3 255 256 275 
3 275 274 255 
3 256 257 276 
3 276 275 256 
3 257 258 277 
3 277 276 257 
3 258 259 278 
3 278 277 258 
3 259 429 431 
3 431 278 259 
3 279 260 280 
3 280 281 279 
3 260 261 282 
3 282 280 260 
3 261 262 283 
3 283 282 261 
3 262 263 284 
3 284 283 262 
3 263 264 285 
3 285 284 263 
3 264 265 286 
3 286 285 264 
3 265 266 287 
3 287 286 265 
3 266 267 288 
3 288 287 266 
3 267 268 289 
3 289 288 267 
3 268 270 291 
3 291 289 268 
3 430 269 290 
3 290 432 430 
3 269 271 292 
3 292 290 269 
3 271 272 293 
3 293 292 271 
3 272 273 294 
3 294 293 272 
3 273 274 295 
3 295 294 273 
3 274 275 296 
3 296 295 274 
3 275 276 297 
3 297 296 275 
3 276 277 298 
3 298 297 276 
3 277 278 299 
3 299 298 277 
3 278 431 433 
3 433 299 278 
3 281 280 300 
3 300 319 281 
3 280 282 301 
3 301 300 280 
3 282 283 302 
3 302 301 282 
3 283 284 303 
3 303 302 283 
3 284 285 304 
3 304 303 284 
3 285 286 305 
3 305 304 285 
3 286 287 306 
3 306 305 286 
3 287 288 307 
3 307 306 287 
3 288 289 308 
3 308 307 288 
3 289 291 309 
3 309 308 289 
3 432 290 310 
3 310 434 432 
3 290 292 311 
3 311 310 290 
3 292 293 312 
3 312 311 292 
3 293 294 313 
3 313 312 293 
3 294 295 314 
3 314 313 294 
3 295 296 315 
3 315 314 295 
3 296 297 316 
3 316 315 296 
3 297 298 317 
3 317 316 297 
3 298 299 318 
3 318 317 298 
3 299 433 435 
3 435 318 299 
3 319 300 320 
3 320 339 319 
3 300 301 321 
3 321 320 300 
3 301 302 322 
3 322 321 301 
3 302 303 323 
3 323 322 302 
3 303 304 324 
3 324 323 303 
3 304 305 325 
3 325 324 304 
3 305 306 326 
3 326 325 305 
3 306 307 327 
3 327 326 306 
3 307 308 328 
3 328 327 307 
3 308 309 329 
3 329 328 308 
3 434 310 330 
3 330 436 434 
3 310 311 331 
3 331 330 310 
3 311 312 332 
3 332 331 311 
3 312 313 333 
3 333 332 312 
3 313 314 334 
3 334 333 313 
3 314 315 335 
3 335 334 314 
3 315 316 336 
3 336 335 315 
3 316 317 337 
3 337 336 316 
3 317 318 338 
3 338 337 317 
3 318 435 437 
3 437 338 318 
3 339 320 340 
3 340 341 339 
3 320 321 342 
3 342 340 320 
3 321 322 343 
3 343 342 321 
3 322 323 344 
3 344 343 322 
3 323 324 345 
3 345 344 323 
3 324 325 346 
3 346 345 324 
3 325 326 347 
3 347 346 325 
3 326 327 348 
3 348 347 326 
3 327 328 349 
3 349 348 327 
3 328 329 350 
3 350 349 328 
3 436 330 351 
3 351 438 436 
3 330 331 352 
3 352 351 330 
3 331 332 353 
3 353 352 331 
3 332 333 354 
3 354 353 332 
3 333 334 355 
3 355 354 333 
3 334 335 356 
3 356 355 334 
3 335 336 357 
3 357 356 335 
3 336 337 358 
3 358 357 336 
3 337 338 359 
3 359 358 337 
3 338 437 439 
3 439 359 338 
3 0 38 360 
3 2 0 360 
3 4 2 360 
3 6 4 360 
3 8 6 360 
3 10 8 360 
3 12 10 360 
3 14 12 360 
3 16 14 360 
3 18 16 360 
3 19 362 440 
3 22 19 440 
3 24 22 440 
3 26 24 440 
3 28 26 440 
3 30 28 440 
3 32 30 440 
3 34 32 440 
3 36 34 440 
3 364 36 440 
3 341 340 361 
3 340 342 361 
3 342 343 361 
3 343 344 361 
3 344 345 361 
3 345 346 361 
3 346 347 361 
3 347 348 361 
3 348 349 361 
3 349 350 361 
3 438 351 441 
3 351 352 441 
3 352 353 441 
3 353 354 441 
3 354 355 441 
3 355 356 441 
3 356 357 441 
3 357 358 441 
3 358 359 441 
3 359 439 441 
