ply
format ascii 1.0
comment VCGLIB generated
element vertex 4
property float x
property float y
property float z
property float nx
property float ny
property float nz
property float texture_u
property float texture_v
element face 2
property list uchar int vertex_indices
property list uchar float texcoord
end_header
0.5 0.5 5.563627e-08 8.742278e-08 0.4848096 -0.8746197 1.000000 1.000000
-0.5 0.5 -3.178651e-08 8.742278e-08 0.4848096 -0.8746197 0.000000 1.000000
0.5 -0.5 3.178651e-08 8.742278e-08 0.4848096 -0.8746197 1.000000 0.000000
-0.5 -0.5 -5.563627e-08 8.742278e-08 0.4848096 -0.8746197 0.000000 0.000000
3 3 1 0 6 0.000000 0.000000 0.000000 1.000000 1.000000 1.000000 
3 0 2 3 6 1.000000 1.000000 1.000000 0.000000 0.000000 0.000000 
