ply
format ascii 1.0
comment VCGLIB generated
comment TextureFile 2386112179_2048x2048_6195987693227547908.png
element vertex 108
property float x
property float y
property float z
property float nx
property float ny
property float nz
element face 212
property list uchar int vertex_indices
property list uchar float texcoord
end_header
-0.1974536 -0.1735633 0.4899043 -0.1290963 -0.9854981 -0.1101257 
-0.1984669 -0.1733478 0.4899043 -0.4233776 -0.8940386 -0.1464457 
-0.0005693682 -0.05909937 -0.4964829 -0.250413 -0.943031 -0.2190567 
5.801311e-06 -0.05957362 -0.4944178 0.04163405 -0.9856444 -0.1636205 
-0.199305 -0.1727389 0.4899043 -0.773983 -0.6038298 -0.1906305 
-0.001164716 -0.0583531 -0.4976103 -0.6321507 -0.7243506 -0.2751395 
-0.1998229 -0.1718417 0.4899043 -0.9554777 -0.2318973 -0.1824447 
-0.1999312 -0.1708114 0.4899043 -0.9752653 0.1732292 -0.1372925 
-0.002028534 -0.05657172 -0.4964829 -0.9563597 0.1665896 -0.2400501 
-0.00168002 -0.05746046 -0.4976103 -0.8948614 -0.3450833 -0.2830912 
-0.199611 -0.1698261 0.4899043 -0.9012212 0.4244778 -0.08728684 
-0.00215159 -0.05583646 -0.4944178 -0.8744121 0.4567623 -0.1636209 
-0.1974522 -0.1710711 0.4999999 -0.2093424 -0.2384106 0.9483334 
-0.1979016 -0.1719878 0.499413 -0.2434432 -0.6978813 0.6735704 
0.1979014 -0.1720084 0.499413 0.2315247 -0.5997287 0.7659777 
0.1974521 -0.1710917 0.4999999 0.3111412 -0.06208768 0.9483334 
-0.1981466 -0.1728164 0.4977593 -0.1224457 -0.941725 0.3133067 
0.1981464 -0.172837 0.4977593 0.1436442 -0.9076102 0.3944745 
-0.1981456 -0.1734147 0.4953262 -0.1033285 -0.9856022 0.133834 
0.1981453 -0.1734353 0.4953262 0.1049135 -0.9766796 0.1873239 
-0.1978998 -0.173679 0.4925424 -0.1029129 -0.994598 -0.01355162 
0.1978995 -0.1736996 0.4925424 0.1131768 -0.993417 0.01771193 
0.1974533 -0.1735839 0.4899043 0.08299556 -0.9927203 -0.08728217 
-0.1999344 -0.1701546 0.4925424 -0.9169125 0.3986955 0.01770565 
-0.002016868 0.1726073 0.4925426 -0.8098958 0.5864171 -0.01355338 
-0.002139711 0.172163 0.4899044 -0.7889178 0.6045504 -0.1101248 
-0.1998284 -0.1704996 0.4953262 -0.8982817 0.397488 0.1873322 
-0.001665057 0.1726879 0.4953263 -0.8018938 0.5822837 0.1338357 
-0.1993107 -0.1707997 0.4977593 -0.857838 0.3294038 0.3944707 
-0.1984707 -0.1710019 0.499413 -0.6351498 0.09936106 0.7659714 
-0.000551297 0.1717632 0.4994132 -0.4826771 0.5597569 0.6735689 
-0.001146415 0.1723897 0.4977595 -0.7543436 0.5768924 0.3133065 
1.781037e-05 0.1709157 0.5 -0.1018086 0.3005026 0.9483318 
-0.001446472 0.1729328 0.4899044 -0.5625788 0.8136694 -0.1464486 
-0.001453288 -0.05557548 -0.4964829 -0.6914837 0.6883784 -0.2190558 
-0.0005000455 0.1733542 0.4899044 -0.1359638 0.9722 -0.1906335 
-0.0005093338 -0.05543302 -0.4976103 -0.3112353 0.9096325 -0.2751386 
0.0005359227 0.1733541 0.4899044 0.2769097 0.9434165 -0.1824455 
0.001482305 0.1729327 0.4899044 0.6376514 0.7579925 -0.1372882 
0.001465307 -0.05557564 -0.4964829 0.622454 0.7449344 -0.2400493 
0.0005213677 -0.05543307 -0.4976103 0.1485754 0.9475149 -0.2830916 
0.002175462 0.1721628 0.4899044 0.8182155 0.5682474 -0.08728216 
0.002163582 -0.05583669 -0.4944178 0.8327721 0.5288844 -0.1636217 
0.002052665 0.1726071 0.4925426 0.8037326 0.5947272 0.01770879 
0.1999344 -0.1701754 0.4925424 0.9128003 0.4081813 -0.01355386 
0.1996111 -0.1698469 0.4899043 0.9180173 0.3809423 -0.1101239 
0.001700863 0.1726878 0.4953263 0.793375 0.5791918 0.1873315 
0.00118219 0.1723896 0.4977595 0.7141954 0.5782032 0.3944694 
0.1993107 -0.1708205 0.4977593 0.876781 0.364818 0.3133099 
0.1998284 -0.1705205 0.4953262 0.9052244 0.4033062 0.1338393 
0.0005870068 0.1717631 0.4994132 0.4036148 0.5003713 0.7659789 
0.1984707 -0.1710226 0.499413 0.7261073 0.138117 0.6735666 
0.1999312 -0.1708322 0.4899043 0.9859484 0.08035737 -0.1464528 
0.00204045 -0.05657193 -0.4964829 0.9418959 0.2546496 -0.2190565 
0.001691843 -0.05746064 -0.4976103 0.9433807 -0.1852867 -0.2751397 
0.1998228 -0.1718625 0.4899043 0.9099256 -0.3683648 -0.1906381 
0.1993048 -0.1727596 0.4899043 0.6785873 -0.7115015 -0.1824418 
0.001176445 -0.05835323 -0.4976103 0.7462888 -0.6024219 -0.2830918 
0.1984667 -0.1733685 0.4899043 0.3376119 -0.9312201 -0.1372861 
0.0005810202 -0.05909943 -0.4964829 0.333911 -0.9115256 -0.2400512 
-0.2002272 -0.1710439 0.4923479 -0.9964368 0.06530634 -0.05337482 
-0.2001029 -0.1719946 0.4918923 -0.9543439 -0.2889541 -0.07571898 
-0.1995774 -0.1729048 0.4918923 -0.7102805 -0.7011793 -0.0620418 
-0.1988163 -0.1734878 0.4923479 -0.3599797 -0.932927 -0.007878488 
-0.1989014 -0.1732993 0.4950666 -0.4027832 -0.906354 0.1276253 
-0.1989033 -0.1726933 0.4975321 -0.5534763 -0.7556641 0.3501939 
-0.198821 -0.1718613 0.4989589 -0.7566878 -0.2827922 0.5894508 
-0.1995826 -0.1715166 0.4975321 -0.9377359 -0.06237807 0.3417022 
-0.2001064 -0.1712119 0.4950666 -0.9911252 0.06882346 0.1137283 
-0.2001134 -0.1720296 0.494339 -0.9393525 -0.3380221 0.05794884 
-0.199613 -0.1728964 0.494339 -0.7105078 -0.6967734 0.09841509 
-0.1996156 -0.1723201 0.4966849 -0.8754529 -0.4214191 0.2366182 
0.001428892 0.1733053 0.492348 0.5547882 0.8302781 -0.05337031 
0.0005434673 0.173673 0.4918925 0.226935 0.9709619 -0.07572048 
-0.0005075569 0.1736731 0.4918925 -0.2521194 0.9657052 -0.06204272 
-0.00139302 0.1733055 0.492348 -0.6279567 0.7782084 -0.007875917 
-0.001187161 0.1732848 0.4950667 -0.583554 0.8019831 0.1276239 
-0.000661442 0.1729835 0.4975323 -0.3777042 0.8571497 0.3501914 
1.789354e-05 0.1724962 0.498959 0.1334327 0.7966985 0.5894636 
0.0006972801 0.1729835 0.4975323 0.4148496 0.843294 0.3416946 
0.00122303 0.1732847 0.4950667 0.5551747 0.8239217 0.1137281 
-0.0004824834 0.1736996 0.4943391 -0.248193 0.9636986 0.09841392 
1.794167e-05 0.1734138 0.4966851 0.07277363 0.9688743 0.2366148 
0.0005183966 0.1736996 0.4943391 0.1769424 0.9825133 0.05795682 
0.1988161 -0.1735086 0.4923479 0.4416652 -0.8955916 -0.05336386 
0.1995772 -0.1729256 0.4918923 0.7274065 -0.682016 -0.07572351 
0.2001028 -0.1720154 0.4918923 0.9623782 -0.264534 -0.06204825 
0.2002272 -0.1710648 0.4923479 0.9879273 0.1547179 -0.007878734 
0.2001063 -0.1712327 0.4950666 0.9863173 0.1043441 0.1276344 
0.1995825 -0.1715374 0.4975321 0.931165 -0.101478 0.3501912 
0.1988208 -0.171882 0.4989589 0.6232482 -0.513906 0.5894594 
0.1989031 -0.172714 0.4975321 0.5229005 -0.7809094 0.3416954 
0.1989011 -0.17332 0.4950666 0.4359485 -0.8927572 0.1137254 
0.1996128 -0.1729172 0.494339 0.7623979 -0.6445083 0.0579539 
0.2001132 -0.1720504 0.494339 0.9586818 -0.266913 0.0984204 
0.1996154 -0.1723409 0.4966849 0.8026897 -0.5474501 0.2366169 
5.846506e-06 -0.0587056 -0.4982915 -0.09897364 -0.9229823 -0.3718977 
-0.0006744789 -0.05807858 -0.4991267 -0.4960263 -0.7118457 -0.4972259 
-0.001197128 -0.05717322 -0.4991267 -0.8516951 -0.04168683 -0.522377 
-0.00139988 -0.05627051 -0.4982915 -0.7498408 0.5472037 -0.3718964 
-0.0005167083 -0.05599484 -0.4991267 -0.368464 0.7854941 -0.4972257 
0.0005286838 -0.05599489 -0.4991267 0.3897471 0.7584323 -0.5223769 
0.001411827 -0.05627066 -0.4982915 0.8488129 0.3757789 -0.3718965 
0.00120898 -0.05717334 -0.4991267 0.86449 -0.07364762 -0.4972254 
0.0006862371 -0.05807865 -0.4991267 0.4619495 -0.7167456 -0.5223776 
5.901059e-06 -0.05765794 -0.5 -0.1577131 -0.4955263 -0.8541547 
-0.0004926166 -0.05679438 -0.5 -0.350282 0.3843467 -0.8541547 
0.0005045088 -0.05679443 -0.5 0.5079954 0.1111799 -0.8541543 
3 0 1 2 6 0.515514 0.614209 0.514063 0.613098 0.972267 0.367063 
3 2 3 0 6 0.972267 0.367063 0.972455 0.368850 0.515514 0.614209 
3 1 4 5 6 0.514063 0.613098 0.512551 0.611915 0.972042 0.365165 
3 5 2 1 6 0.972042 0.365165 0.972267 0.367063 0.514063 0.613098 
3 4 6 9 6 0.512551 0.611915 0.511237 0.610661 0.971662 0.363438 
3 9 5 4 6 0.971662 0.363438 0.972042 0.365165 0.512551 0.611915 
3 6 7 8 6 0.621883 0.717353 0.620620 0.718854 0.166527 0.460521 
3 8 9 6 6 0.166527 0.460521 0.167216 0.458695 0.621883 0.717353 
3 7 10 11 6 0.620620 0.718854 0.619218 0.720148 0.166057 0.462334 
3 11 8 7 6 0.166057 0.462334 0.166527 0.460521 0.620620 0.718854 
3 12 13 14 6 0.515315 0.029700 0.515677 0.027505 0.973278 0.294454 
3 14 15 12 6 0.973278 0.294454 0.971701 0.295931 0.515315 0.029700 
3 13 16 17 6 0.515677 0.027505 0.516251 0.025322 0.974692 0.292746 
3 17 14 13 6 0.974692 0.292746 0.973278 0.294454 0.515677 0.027505 
3 16 18 19 6 0.511356 0.617710 0.512624 0.616398 0.969986 0.891840 
3 19 17 16 6 0.969986 0.891840 0.969580 0.893607 0.511356 0.617710 
3 18 20 21 6 0.512624 0.616398 0.514083 0.615222 0.970217 0.889956 
3 21 19 18 6 0.970217 0.889956 0.969986 0.891840 0.512624 0.616398 
3 20 0 22 6 0.514083 0.615222 0.515514 0.614209 0.970395 0.888183 
3 22 21 20 6 0.970395 0.888183 0.970217 0.889956 0.514083 0.615222 
3 10 23 24 6 0.619218 0.720148 0.620925 0.721232 0.157154 0.980875 
3 24 25 10 6 0.157154 0.980875 0.156868 0.978999 0.619218 0.720148 
3 23 26 27 6 0.620925 0.721232 0.622572 0.722470 0.157660 0.982823 
3 27 24 23 6 0.157660 0.982823 0.157154 0.980875 0.620925 0.721232 
3 26 28 31 6 0.622572 0.722470 0.623905 0.723961 0.158455 0.984649 
3 31 27 26 6 0.158455 0.984649 0.157660 0.982823 0.622572 0.722470 
3 28 29 30 6 0.511067 0.028280 0.513240 0.028894 0.510888 0.558662 
3 30 31 28 6 0.510888 0.558662 0.508698 0.559011 0.511067 0.028280 
3 29 12 32 6 0.513240 0.028894 0.515315 0.029700 0.512961 0.558057 
3 32 30 29 6 0.512961 0.558057 0.510888 0.558662 0.513240 0.028894 
3 25 33 34 6 0.156868 0.978999 0.154995 0.979909 0.164247 0.461408 
3 34 11 25 6 0.164247 0.461408 0.166057 0.462334 0.156868 0.978999 
3 33 35 36 6 0.154995 0.979909 0.153060 0.980812 0.162355 0.460571 
3 36 34 33 6 0.162355 0.460571 0.164247 0.461408 0.154995 0.979909 
3 35 37 40 6 0.153060 0.980812 0.151144 0.981401 0.160436 0.460160 
3 40 36 35 6 0.160436 0.460160 0.162355 0.460571 0.153060 0.980812 
3 37 38 39 6 0.468847 0.021272 0.469463 0.023871 0.021420 0.289048 
3 39 40 37 6 0.021420 0.289048 0.019479 0.287180 0.468847 0.021272 
3 38 41 42 6 0.469463 0.023871 0.469731 0.026588 0.023590 0.290640 
3 42 39 38 6 0.023590 0.290640 0.021420 0.289048 0.469463 0.023871 
3 41 43 44 6 0.469731 0.026588 0.472134 0.025517 0.471428 0.556983 
3 44 45 41 6 0.471428 0.556983 0.469023 0.555905 0.469731 0.026588 
3 43 46 49 6 0.472134 0.025517 0.474659 0.024754 0.473956 0.557777 
3 49 44 43 6 0.473956 0.557777 0.471428 0.556983 0.472134 0.025517 
3 46 47 48 6 0.514023 0.564802 0.513298 0.562719 0.975545 0.298591 
3 48 49 46 6 0.975545 0.298591 0.976970 0.300277 0.514023 0.564802 
3 47 50 51 6 0.513298 0.562719 0.513041 0.560372 0.973656 0.297177 
3 51 48 47 6 0.973656 0.297177 0.975545 0.298591 0.513298 0.562719 
3 50 32 15 6 0.513041 0.560372 0.512961 0.558057 0.971701 0.295931 
3 15 51 50 6 0.971701 0.295931 0.973656 0.297177 0.513041 0.560372 
3 45 52 53 6 0.469023 0.555905 0.468752 0.558628 0.021422 0.292230 
3 53 42 45 6 0.021422 0.292230 0.023590 0.290640 0.469023 0.555905 
3 52 55 54 6 0.468752 0.558628 0.468138 0.561238 0.019461 0.294085 
3 54 53 52 6 0.019461 0.294085 0.021422 0.292230 0.468752 0.558628 
3 55 56 57 6 0.975579 0.889958 0.973834 0.889553 0.975892 0.367701 
3 57 54 55 6 0.975892 0.367701 0.977673 0.367350 0.975579 0.889958 
3 56 58 59 6 0.973834 0.889553 0.972053 0.888891 0.974103 0.368253 
3 59 57 56 6 0.974103 0.368253 0.975892 0.367701 0.973834 0.889553 
3 58 22 3 6 0.972053 0.888891 0.970395 0.888183 0.972455 0.368850 
3 3 59 58 6 0.972455 0.368850 0.974103 0.368253 0.972053 0.888891 
3 22 0 3 6 0.970395 0.888183 0.515514 0.614209 0.972455 0.368850 
3 10 25 11 6 0.619218 0.720148 0.156868 0.978999 0.166057 0.462334 
3 32 12 15 6 0.512961 0.558057 0.515315 0.029700 0.971701 0.295931 
3 45 42 41 6 0.469023 0.555905 0.023590 0.290640 0.469731 0.026588 
3 23 10 7 6 0.620925 0.721232 0.619218 0.720148 0.620620 0.718854 
3 7 60 23 6 0.620620 0.718854 0.622308 0.719854 0.620925 0.721232 
3 60 7 6 6 0.622308 0.719854 0.620620 0.718854 0.621883 0.717353 
3 6 61 60 6 0.621883 0.717353 0.623344 0.718213 0.622308 0.719854 
3 61 6 4 6 0.510156 0.611783 0.511237 0.610661 0.512551 0.611915 
3 4 62 61 6 0.512551 0.611915 0.511592 0.612902 0.510156 0.611783 
3 62 4 1 6 0.511592 0.612902 0.512551 0.611915 0.514063 0.613098 
3 1 63 62 6 0.514063 0.613098 0.512822 0.614139 0.511592 0.612902 
3 1 0 20 6 0.514063 0.613098 0.515514 0.614209 0.514083 0.615222 
3 20 63 1 6 0.514083 0.615222 0.512822 0.614139 0.514063 0.613098 
3 63 20 18 6 0.512822 0.614139 0.514083 0.615222 0.512624 0.616398 
3 18 64 63 6 0.512624 0.616398 0.511633 0.615444 0.512822 0.614139 
3 64 18 16 6 0.511633 0.615444 0.512624 0.616398 0.511356 0.617710 
3 16 65 64 6 0.511356 0.617710 0.510225 0.616687 0.511633 0.615444 
3 65 16 13 6 0.514469 0.024551 0.516251 0.025322 0.515677 0.027505 
3 13 66 65 6 0.515677 0.027505 0.513574 0.026652 0.514469 0.024551 
3 13 12 29 6 0.515677 0.027505 0.515315 0.029700 0.513240 0.028894 
3 29 66 13 6 0.513240 0.028894 0.513574 0.026652 0.515677 0.027505 
3 66 29 28 6 0.513574 0.026652 0.513240 0.028894 0.511067 0.028280 
3 28 67 66 6 0.511067 0.028280 0.511313 0.026351 0.513574 0.026652 
3 67 28 26 6 0.625166 0.722713 0.623905 0.723961 0.622572 0.722470 
3 26 68 67 6 0.622572 0.722470 0.623695 0.721211 0.625166 0.722713 
3 68 26 23 6 0.623695 0.721211 0.622572 0.722470 0.620925 0.721232 
3 23 60 68 6 0.620925 0.721232 0.622308 0.719854 0.623695 0.721211 
3 68 60 61 6 0.623695 0.721211 0.622308 0.719854 0.623344 0.718213 
3 61 69 68 6 0.623344 0.718213 0.624691 0.719632 0.623695 0.721211 
3 69 61 62 6 0.509280 0.613286 0.510156 0.611783 0.511592 0.612902 
3 62 70 69 6 0.511592 0.612902 0.510688 0.614216 0.509280 0.613286 
3 62 63 64 6 0.511592 0.612902 0.512822 0.614139 0.511633 0.615444 
3 64 70 62 6 0.511633 0.615444 0.510688 0.614216 0.511592 0.612902 
3 70 64 65 6 0.510688 0.614216 0.511633 0.615444 0.510225 0.616687 
3 65 71 70 6 0.510225 0.616687 0.509272 0.615305 0.510688 0.614216 
3 65 66 67 6 0.514469 0.024551 0.513574 0.026652 0.511313 0.026351 
3 67 71 65 6 0.511313 0.026351 0.512332 0.024472 0.514469 0.024551 
3 71 67 68 6 0.626196 0.721125 0.625166 0.722713 0.623695 0.721211 
3 68 69 71 6 0.623695 0.721211 0.624691 0.719632 0.626196 0.721125 
3 69 70 71 6 0.509280 0.613286 0.510688 0.614216 0.509272 0.615305 
3 43 41 38 6 0.472134 0.025517 0.469731 0.026588 0.469463 0.023871 
3 38 72 43 6 0.469463 0.023871 0.471885 0.022799 0.472134 0.025517 
3 72 38 37 6 0.471885 0.022799 0.469463 0.023871 0.468847 0.021272 
3 37 73 72 6 0.468847 0.021272 0.470838 0.020403 0.471885 0.022799 
3 73 37 35 6 0.151613 0.983157 0.151144 0.981401 0.153060 0.980812 
3 35 74 73 6 0.153060 0.980812 0.153524 0.982407 0.151613 0.983157 
3 74 35 33 6 0.153524 0.982407 0.153060 0.980812 0.154995 0.979909 
3 33 75 74 6 0.154995 0.979909 0.155368 0.981762 0.153524 0.982407 
3 33 25 24 6 0.154995 0.979909 0.156868 0.978999 0.157154 0.980875 
3 24 75 33 6 0.157154 0.980875 0.155368 0.981762 0.154995 0.979909 
3 75 24 27 6 0.155368 0.981762 0.157154 0.980875 0.157660 0.982823 
3 27 76 75 6 0.157660 0.982823 0.156124 0.983526 0.155368 0.981762 
3 76 27 31 6 0.156124 0.983526 0.157660 0.982823 0.158455 0.984649 
3 31 77 76 6 0.158455 0.984649 0.156862 0.985449 0.156124 0.983526 
3 77 31 30 6 0.508663 0.560981 0.508698 0.559011 0.510888 0.558662 
3 30 78 77 6 0.510888 0.558662 0.510857 0.560953 0.508663 0.560981 
3 30 32 50 6 0.510888 0.558662 0.512961 0.558057 0.513041 0.560372 
3 50 78 30 6 0.513041 0.560372 0.510857 0.560953 0.510888 0.558662 
3 78 50 47 6 0.510857 0.560953 0.513041 0.560372 0.513298 0.562719 
3 47 79 78 6 0.513298 0.562719 0.511429 0.563166 0.510857 0.560953 
3 79 47 46 6 0.511429 0.563166 0.513298 0.562719 0.514023 0.564802 
3 46 80 79 6 0.514023 0.564802 0.512067 0.565470 0.511429 0.563166 
3 80 46 43 6 0.474450 0.022536 0.474659 0.024754 0.472134 0.025517 
3 43 72 80 6 0.472134 0.025517 0.471885 0.022799 0.474450 0.022536 
3 80 72 73 6 0.474450 0.022536 0.471885 0.022799 0.470838 0.020403 
3 73 83 80 6 0.470838 0.020403 0.473344 0.020235 0.474450 0.022536 
3 83 73 74 6 0.152617 0.984951 0.151613 0.983157 0.153524 0.982407 
3 74 81 83 6 0.153524 0.982407 0.154337 0.984082 0.152617 0.984951 
3 74 75 76 6 0.153524 0.982407 0.155368 0.981762 0.156124 0.983526 
3 76 81 74 6 0.156124 0.983526 0.154337 0.984082 0.153524 0.982407 
3 81 76 77 6 0.154337 0.984082 0.156124 0.983526 0.156862 0.985449 
3 77 82 81 6 0.156862 0.985449 0.154903 0.985969 0.154337 0.984082 
3 77 78 79 6 0.508663 0.560981 0.510857 0.560953 0.511429 0.563166 
3 79 82 77 6 0.511429 0.563166 0.509337 0.563227 0.508663 0.560981 
3 82 79 80 6 0.509337 0.563227 0.511429 0.563166 0.512067 0.565470 
3 80 83 82 6 0.512067 0.565470 0.509876 0.565662 0.509337 0.563227 
3 83 81 82 6 0.152617 0.984951 0.154337 0.984082 0.154903 0.985969 
3 21 22 58 6 0.970217 0.889956 0.970395 0.888183 0.972053 0.888891 
3 58 84 21 6 0.972053 0.888891 0.971770 0.890498 0.970217 0.889956 
3 84 58 56 6 0.971770 0.890498 0.972053 0.888891 0.973834 0.889553 
3 56 85 84 6 0.973834 0.889553 0.973524 0.890869 0.971770 0.890498 
3 85 56 55 6 0.973524 0.890869 0.973834 0.889553 0.975579 0.889958 
3 55 86 85 6 0.975579 0.889958 0.975330 0.891446 0.973524 0.890869 
3 86 55 52 6 0.470122 0.562103 0.468138 0.561238 0.468752 0.558628 
3 52 87 86 6 0.468752 0.558628 0.471165 0.559702 0.470122 0.562103 
3 52 45 44 6 0.468752 0.558628 0.469023 0.555905 0.471428 0.556983 
3 44 87 52 6 0.471428 0.556983 0.471165 0.559702 0.468752 0.558628 
3 87 44 49 6 0.471165 0.559702 0.471428 0.556983 0.473956 0.557777 
3 49 88 87 6 0.473956 0.557777 0.473744 0.559983 0.471165 0.559702 
3 88 49 48 6 0.978540 0.298932 0.976970 0.300277 0.975545 0.298591 
3 48 89 88 6 0.975545 0.298591 0.976880 0.297210 0.978540 0.298932 
3 89 48 51 6 0.976880 0.297210 0.975545 0.298591 0.973656 0.297177 
3 51 90 89 6 0.973656 0.297177 0.975264 0.295592 0.976880 0.297210 
3 51 15 14 6 0.973656 0.297177 0.971701 0.295931 0.973278 0.294454 
3 14 90 51 6 0.973278 0.294454 0.975264 0.295592 0.973656 0.297177 
3 90 14 17 6 0.975264 0.295592 0.973278 0.294454 0.974692 0.292746 
3 17 91 90 6 0.974692 0.292746 0.976407 0.293717 0.975264 0.295592 
3 91 17 19 6 0.971138 0.893953 0.969580 0.893607 0.969986 0.891840 
3 19 92 91 6 0.969986 0.891840 0.971350 0.892165 0.971138 0.893953 
3 92 19 21 6 0.971350 0.892165 0.969986 0.891840 0.970217 0.889956 
3 21 84 92 6 0.970217 0.889956 0.971770 0.890498 0.971350 0.892165 
3 92 84 85 6 0.971350 0.892165 0.971770 0.890498 0.973524 0.890869 
3 85 93 92 6 0.973524 0.890869 0.972964 0.892272 0.971350 0.892165 
3 93 85 86 6 0.972964 0.892272 0.973524 0.890869 0.975330 0.891446 
3 86 94 93 6 0.975330 0.891446 0.974676 0.892972 0.972964 0.892272 
3 86 87 88 6 0.470122 0.562103 0.471165 0.559702 0.473744 0.559983 
3 88 94 86 6 0.473744 0.559983 0.472620 0.562268 0.470122 0.562103 
3 94 88 89 6 0.979818 0.297144 0.978540 0.298932 0.976880 0.297210 
3 89 95 94 6 0.976880 0.297210 0.977997 0.295441 0.979818 0.297144 
3 89 90 91 6 0.976880 0.297210 0.975264 0.295592 0.976407 0.293717 
3 91 95 89 6 0.976407 0.293717 0.977997 0.295441 0.976880 0.297210 
3 95 91 92 6 0.972909 0.893933 0.971138 0.893953 0.971350 0.892165 
3 92 93 95 6 0.971350 0.892165 0.972964 0.892272 0.972909 0.893933 
3 93 94 95 6 0.972964 0.892272 0.974676 0.892972 0.972909 0.893933 
3 59 3 2 6 0.974103 0.368253 0.972455 0.368850 0.972267 0.367063 
3 2 96 59 6 0.972267 0.367063 0.973834 0.366611 0.974103 0.368253 
3 96 2 5 6 0.973834 0.366611 0.972267 0.367063 0.972042 0.365165 
3 5 97 96 6 0.972042 0.365165 0.973417 0.364910 0.973834 0.366611 
3 97 5 9 6 0.973417 0.364910 0.972042 0.365165 0.971662 0.363438 
3 9 98 97 6 0.971662 0.363438 0.973204 0.363091 0.973417 0.364910 
3 98 9 8 6 0.165717 0.457853 0.167216 0.458695 0.166527 0.460521 
3 8 99 98 6 0.166527 0.460521 0.164795 0.459545 0.165717 0.457853 
3 8 11 34 6 0.166527 0.460521 0.166057 0.462334 0.164247 0.461408 
3 34 99 8 6 0.164247 0.461408 0.164795 0.459545 0.166527 0.460521 
3 99 34 36 6 0.164795 0.459545 0.164247 0.461408 0.162355 0.460571 
3 36 100 99 6 0.162355 0.460571 0.162897 0.458993 0.164795 0.459545 
3 100 36 40 6 0.162897 0.458993 0.162355 0.460571 0.160436 0.460160 
3 40 101 100 6 0.160436 0.460160 0.160847 0.458425 0.162897 0.458993 
3 101 40 39 6 0.017698 0.288500 0.019479 0.287180 0.021420 0.289048 
3 39 102 101 6 0.021420 0.289048 0.019219 0.290628 0.017698 0.288500 
3 39 42 53 6 0.021420 0.289048 0.023590 0.290640 0.021422 0.292230 
3 53 102 39 6 0.021422 0.292230 0.019219 0.290628 0.021420 0.289048 
3 102 53 54 6 0.019219 0.290628 0.021422 0.292230 0.019461 0.294085 
3 54 103 102 6 0.019461 0.294085 0.017682 0.292763 0.019219 0.290628 
3 103 54 57 6 0.977392 0.365856 0.977673 0.367350 0.975892 0.367701 
3 57 104 103 6 0.975892 0.367701 0.975591 0.366356 0.977392 0.365856 
3 104 57 59 6 0.975591 0.366356 0.975892 0.367701 0.974103 0.368253 
3 59 96 104 6 0.974103 0.368253 0.973834 0.366611 0.975591 0.366356 
3 104 96 97 6 0.975591 0.366356 0.973834 0.366611 0.973417 0.364910 
3 97 105 104 6 0.973417 0.364910 0.975021 0.364896 0.975591 0.366356 
3 105 97 98 6 0.975021 0.364896 0.973417 0.364910 0.973204 0.363091 
3 98 106 105 6 0.973204 0.363091 0.974960 0.363165 0.975021 0.364896 
3 98 99 100 6 0.165717 0.457853 0.164795 0.459545 0.162897 0.458993 
3 100 106 98 6 0.162897 0.458993 0.163781 0.457385 0.165717 0.457853 
3 106 100 101 6 0.163781 0.457385 0.162897 0.458993 0.160847 0.458425 
3 101 107 106 6 0.160847 0.458425 0.161729 0.456730 0.163781 0.457385 
3 101 102 103 6 0.017698 0.288500 0.019219 0.290628 0.017682 0.292763 
3 103 107 101 6 0.017682 0.292763 0.016253 0.290624 0.017698 0.288500 
3 107 103 104 6 0.976676 0.364311 0.977392 0.365856 0.975591 0.366356 
3 104 105 107 6 0.975591 0.366356 0.975021 0.364896 0.976676 0.364311 
3 105 106 107 6 0.975021 0.364896 0.974960 0.363165 0.976676 0.364311 
