ply
format ascii 1.0
comment VCGLIB generated
element vertex 100
property float x
property float y
property float z
property float nx
property float ny
property float nz
property float texture_u
property float texture_v
element face 162
property list uchar int vertex_indices
end_header
50 9.338522e-06 -50 8.742277e-08 -1 -9.934763e-08 1.000000 1.000000
38.88889 8.367158e-06 -50 8.742277e-08 -1 -9.934764e-08 1.000000 0.888889
27.77778 7.395794e-06 -50 8.742277e-08 -1 -9.934766e-08 1.000000 0.777778
16.66667 6.42443e-06 -50 8.742277e-08 -1 -9.934767e-08 1.000000 0.666667
5.555557 5.453065e-06 -50 8.742277e-08 -1 -9.934766e-08 1.000000 0.555556
-5.555553 4.481701e-06 -50 8.742277e-08 -1 -9.934766e-08 1.000000 0.444444
-16.66666 3.510337e-06 -50 8.742277e-08 -1 -9.934766e-08 1.000000 0.333333
-27.77777 2.538973e-06 -50 8.742276e-08 -1 -9.934764e-08 1.000000 0.222222
-38.88889 1.567609e-06 -50 8.742279e-08 -1 -9.934764e-08 1.000000 0.111111
-50 5.962438e-07 -50 8.742281e-08 -1 -9.934764e-08 1.000000 0.000000
50 8.234659e-06 -38.88889 8.742276e-08 -1 -9.934766e-08 0.888889 1.000000
38.88889 7.263295e-06 -38.88889 8.742277e-08 -1 -9.934766e-08 0.888889 0.888889
27.77778 6.291931e-06 -38.88889 8.742278e-08 -1 -9.934766e-08 0.888889 0.777778
16.66667 5.320567e-06 -38.88889 8.742278e-08 -1 -9.934766e-08 0.888889 0.666667
5.555557 4.349202e-06 -38.88889 8.742278e-08 -1 -9.934766e-08 0.888889 0.555556
-5.555553 3.377838e-06 -38.88889 8.742278e-08 -1 -9.934766e-08 0.888889 0.444444
-16.66666 2.406474e-06 -38.88889 8.742277e-08 -1 -9.934766e-08 0.888889 0.333333
-27.77777 1.435111e-06 -38.88889 8.742276e-08 -1 -9.934767e-08 0.888889 0.222222
-38.88889 4.637457e-07 -38.88889 8.742278e-08 -1 -9.934767e-08 0.888889 0.111111
-50 -5.076183e-07 -38.88889 8.742281e-08 -1 -9.934766e-08 0.888889 0.000000
50 7.130796e-06 -27.77778 8.742277e-08 -1 -9.934764e-08 0.777778 1.000000
38.88889 6.159432e-06 -27.77778 8.742277e-08 -1 -9.934767e-08 0.777778 0.888889
27.77778 5.188068e-06 -27.77778 8.742277e-08 -1 -9.934767e-08 0.777778 0.777778
16.66667 4.216704e-06 -27.77778 8.742277e-08 -1 -9.934766e-08 0.777778 0.666667
5.555557 3.24534e-06 -27.77778 8.742278e-08 -1 -9.934766e-08 0.777778 0.555556
-5.555553 2.273976e-06 -27.77778 8.742277e-08 -1 -9.934766e-08 0.777778 0.444444
-16.66666 1.302612e-06 -27.77778 8.742278e-08 -1 -9.934766e-08 0.777778 0.333333
-27.77777 3.312477e-07 -27.77778 8.742277e-08 -1 -9.934766e-08 0.777778 0.222222
-38.88889 -6.401162e-07 -27.77778 8.742278e-08 -1 -9.934766e-08 0.777778 0.111111
-50 -1.611481e-06 -27.77778 8.742281e-08 -1 -9.934766e-08 0.777778 0.000000
50 6.026934e-06 -16.66667 8.742277e-08 -1 -9.934766e-08 0.666667 1.000000
38.88889 5.05557e-06 -16.66667 8.742278e-08 -1 -9.934764e-08 0.666667 0.888889
27.77778 4.084206e-06 -16.66667 8.742278e-08 -1 -9.934766e-08 0.666667 0.777778
16.66667 3.112842e-06 -16.66667 8.742277e-08 -1 -9.934766e-08 0.666667 0.666667
5.555557 2.141477e-06 -16.66667 8.742278e-08 -1 -9.934766e-08 0.666667 0.555556
-5.555553 1.170113e-06 -16.66667 8.742277e-08 -1 -9.934766e-08 0.666667 0.444444
-16.66666 1.987486e-07 -16.66667 8.742277e-08 -1 -9.934766e-08 0.666667 0.333333
-27.77777 -7.726154e-07 -16.66667 8.742277e-08 -1 -9.934766e-08 0.666667 0.222222
-38.88889 -1.743979e-06 -16.66667 8.742278e-08 -1 -9.934766e-08 0.666667 0.111111
-50 -2.715345e-06 -16.66667 8.74228e-08 -1 -9.934764e-08 0.666667 0.000000
50 4.92307e-06 -5.555557 8.742276e-08 -1 -9.934767e-08 0.555556 1.000000
38.88889 3.951706e-06 -5.555557 8.742278e-08 -1 -9.934767e-08 0.555556 0.888889
27.77778 2.980342e-06 -5.555557 8.742278e-08 -1 -9.934766e-08 0.555556 0.777778
16.66667 2.008978e-06 -5.555557 8.742277e-08 -1 -9.934766e-08 0.555556 0.666667
5.555557 1.037614e-06 -5.555557 8.742277e-08 -1 -9.934766e-08 0.555556 0.555556
-5.555553 6.624981e-08 -5.555557 8.742278e-08 -1 -9.934766e-08 0.555556 0.444444
-16.66666 -9.051148e-07 -5.555557 8.742277e-08 -1 -9.934766e-08 0.555556 0.333333
-27.77777 -1.876478e-06 -5.555557 8.742276e-08 -1 -9.934767e-08 0.555556 0.222222
-38.88889 -2.847843e-06 -5.555557 8.742278e-08 -1 -9.934767e-08 0.555556 0.111111
-50 -3.819207e-06 -5.555557 8.742281e-08 -1 -9.934767e-08 0.555556 0.000000
50 3.819207e-06 5.555553 8.742277e-08 -1 -9.934764e-08 0.444444 1.000000
38.88889 2.847843e-06 5.555553 8.742277e-08 -1 -9.934767e-08 0.444444 0.888889
27.77778 1.876479e-06 5.555553 8.742277e-08 -1 -9.934767e-08 0.444444 0.777778
16.66667 9.051151e-07 5.555553 8.742277e-08 -1 -9.934766e-08 0.444444 0.666667
5.555557 -6.624879e-08 5.555553 8.742278e-08 -1 -9.934766e-08 0.444444 0.555556
-5.555553 -1.037613e-06 5.555553 8.742277e-08 -1 -9.934766e-08 0.444444 0.444444
-16.66666 -2.008977e-06 5.555553 8.742278e-08 -1 -9.934766e-08 0.444444 0.333333
-27.77777 -2.980341e-06 5.555553 8.742277e-08 -1 -9.934766e-08 0.444444 0.222222
-38.88889 -3.951705e-06 5.555553 8.742278e-08 -1 -9.934766e-08 0.444444 0.111111
-50 -4.92307e-06 5.555553 8.742281e-08 -1 -9.934766e-08 0.444444 0.000000
50 2.715345e-06 16.66666 8.742278e-08 -1 -9.934766e-08 0.333333 1.000000
38.88889 1.743981e-06 16.66666 8.742278e-08 -1 -9.934764e-08 0.333333 0.888889
27.77778 7.726173e-07 16.66666 8.742278e-08 -1 -9.934766e-08 0.333333 0.777778
16.66667 -1.987468e-07 16.66666 8.742277e-08 -1 -9.934766e-08 0.333333 0.666667
5.555557 -1.170111e-06 16.66666 8.742277e-08 -1 -9.934766e-08 0.333333 0.555556
-5.555553 -2.141476e-06 16.66666 8.742278e-08 -1 -9.934766e-08 0.333333 0.444444
-16.66666 -3.11284e-06 16.66666 8.742278e-08 -1 -9.934766e-08 0.333333 0.333333
-27.77777 -4.084204e-06 16.66666 8.742277e-08 -1 -9.934766e-08 0.333333 0.222222
-38.88889 -5.055568e-06 16.66666 8.742278e-08 -1 -9.934766e-08 0.333333 0.111111
-50 -6.026933e-06 16.66666 8.74228e-08 -1 -9.934766e-08 0.333333 0.000000
50 1.611482e-06 27.77777 8.742276e-08 -1 -9.934767e-08 0.222222 1.000000
38.88889 6.401183e-07 27.77777 8.742277e-08 -1 -9.934766e-08 0.222222 0.888889
27.77778 -3.312457e-07 27.77777 8.742278e-08 -1 -9.934766e-08 0.222222 0.777778
16.66667 -1.30261e-06 27.77777 8.742278e-08 -1 -9.934766e-08 0.222222 0.666667
5.555557 -2.273974e-06 27.77777 8.742278e-08 -1 -9.934766e-08 0.222222 0.555556
-5.555553 -3.245338e-06 27.77777 8.742278e-08 -1 -9.934766e-08 0.222222 0.444444
-16.66666 -4.216702e-06 27.77777 8.742278e-08 -1 -9.934766e-08 0.222222 0.333333
-27.77777 -5.188066e-06 27.77777 8.742277e-08 -1 -9.934766e-08 0.222222 0.222222
-38.88889 -6.159431e-06 27.77777 8.742278e-08 -1 -9.934767e-08 0.222222 0.111111
-50 -7.130795e-06 27.77777 8.742281e-08 -1 -9.934767e-08 0.222222 0.000000
50 5.076183e-07 38.88889 8.742276e-08 -1 -9.934766e-08 0.111111 1.000000
38.88889 -4.637457e-07 38.88889 8.742276e-08 -1 -9.934766e-08 0.111111 0.888889
27.77778 -1.43511e-06 38.88889 8.742278e-08 -1 -9.934766e-08 0.111111 0.777778
16.66667 -2.406473e-06 38.88889 8.742278e-08 -1 -9.934766e-08 0.111111 0.666667
5.555557 -3.377837e-06 38.88889 8.742278e-08 -1 -9.934766e-08 0.111111 0.555556
-5.555553 -4.349202e-06 38.88889 8.742278e-08 -1 -9.934766e-08 0.111111 0.444444
-16.66666 -5.320566e-06 38.88889 8.742277e-08 -1 -9.934766e-08 0.111111 0.333333
-27.77777 -6.29193e-06 38.88889 8.742276e-08 -1 -9.934766e-08 0.111111 0.222222
-38.88889 -7.263294e-06 38.88889 8.742279e-08 -1 -9.934764e-08 0.111111 0.111111
-50 -8.234659e-06 38.88889 8.742281e-08 -1 -9.934766e-08 0.111111 0.000000
50 -5.962438e-07 50 8.742276e-08 -1 -9.934764e-08 0.000000 1.000000
38.88889 -1.567608e-06 50 8.742277e-08 -1 -9.934764e-08 0.000000 0.888889
27.77778 -2.538972e-06 50 8.742277e-08 -1 -9.934766e-08 0.000000 0.777778
16.66667 -3.510336e-06 50 8.742277e-08 -1 -9.934766e-08 0.000000 0.666667
5.555557 -4.481701e-06 50 8.742278e-08 -1 -9.934766e-08 0.000000 0.555556
-5.555553 -5.453065e-06 50 8.742277e-08 -1 -9.934766e-08 0.000000 0.444444
-16.66666 -6.424429e-06 50 8.742278e-08 -1 -9.934766e-08 0.000000 0.333333
-27.77777 -7.395793e-06 50 8.742276e-08 -1 -9.934767e-08 0.000000 0.222222
-38.88889 -8.367157e-06 50 8.742277e-08 -1 -9.934764e-08 0.000000 0.111111
-50 -9.338522e-06 50 8.742281e-08 -1 -9.934763e-08 0.000000 0.000000
3 11 1 0 
3 0 10 11 
3 12 2 1 
3 1 11 12 
3 13 3 2 
3 2 12 13 
3 14 4 3 
3 3 13 14 
3 15 5 4 
3 4 14 15 
3 16 6 5 
3 5 15 16 
3 17 7 6 
3 6 16 17 
3 18 8 7 
3 7 17 18 
3 19 9 8 
3 8 18 19 
3 21 11 10 
3 10 20 21 
3 22 12 11 
3 11 21 22 
3 23 13 12 
3 12 22 23 
3 24 14 13 
3 13 23 24 
3 25 15 14 
3 14 24 25 
3 26 16 15 
3 15 25 26 
3 27 17 16 
3 16 26 27 
3 28 18 17 
3 17 27 28 
3 29 19 18 
3 18 28 29 
3 31 21 20 
3 20 30 31 
3 32 22 21 
3 21 31 32 
3 33 23 22 
3 22 32 33 
3 34 24 23 
3 23 33 34 
3 35 25 24 
3 24 34 35 
3 36 26 25 
3 25 35 36 
3 37 27 26 
3 26 36 37 
3 38 28 27 
3 27 37 38 
3 39 29 28 
3 28 38 39 
3 41 31 30 
3 30 40 41 
3 42 32 31 
3 31 41 42 
3 43 33 32 
3 32 42 43 
3 44 34 33 
3 33 43 44 
3 45 35 34 
3 34 44 45 
3 46 36 35 
3 35 45 46 
3 47 37 36 
3 36 46 47 
3 48 38 37 
3 37 47 48 
3 49 39 38 
3 38 48 49 
3 51 41 40 
3 40 50 51 
3 52 42 41 
3 41 51 52 
3 53 43 42 
3 42 52 53 
3 54 44 43 
3 43 53 54 
3 55 45 44 
3 44 54 55 
3 56 46 45 
3 45 55 56 
3 57 47 46 
3 46 56 57 
3 58 48 47 
3 47 57 58 
3 59 49 48 
3 48 58 59 
3 61 51 50 
3 50 60 61 
3 62 52 51 
3 51 61 62 
3 63 53 52 
3 52 62 63 
3 64 54 53 
3 53 63 64 
3 65 55 54 
3 54 64 65 
3 66 56 55 
3 55 65 66 
3 67 57 56 
3 56 66 67 
3 68 58 57 
3 57 67 68 
3 69 59 58 
3 58 68 69 
3 71 61 60 
3 60 70 71 
3 72 62 61 
3 61 71 72 
3 73 63 62 
3 62 72 73 
3 74 64 63 
3 63 73 74 
3 75 65 64 
3 64 74 75 
3 76 66 65 
3 65 75 76 
3 77 67 66 
3 66 76 77 
3 78 68 67 
3 67 77 78 
3 79 69 68 
3 68 78 79 
3 81 71 70 
3 70 80 81 
3 82 72 71 
3 71 81 82 
3 83 73 72 
3 72 82 83 
3 84 74 73 
3 73 83 84 
3 85 75 74 
3 74 84 85 
3 86 76 75 
3 75 85 86 
3 87 77 76 
3 76 86 87 
3 88 78 77 
3 77 87 88 
3 89 79 78 
3 78 88 89 
3 91 81 80 
3 80 90 91 
3 92 82 81 
3 81 91 92 
3 93 83 82 
3 82 92 93 
3 94 84 83 
3 83 93 94 
3 95 85 84 
3 84 94 95 
3 96 86 85 
3 85 95 96 
3 97 87 86 
3 86 96 97 
3 98 88 87 
3 87 97 98 
3 99 89 88 
3 88 98 99 
