ply
format ascii 1.0
comment VCGLIB generated
comment TextureFile floor.bmp
element vertex 100
property float x
property float y
property float z
property float nx
property float ny
property float nz
property float texture_u
property float texture_v
element face 162
property list uchar int vertex_indices
end_header
9.999999 -1.549839e-06 10 8.742282e-08 1 6.756122e-08 1.000000 0.000000
7.777777 -1.355566e-06 10 8.742277e-08 1 6.756115e-08 0.888889 0.000000
5.555555 -1.161294e-06 10 8.742282e-08 1 6.756117e-08 0.777778 0.000000
3.333334 -9.670207e-07 10 8.742276e-08 1 6.756115e-08 0.666667 0.000000
1.11111 -7.72748e-07 10 8.742276e-08 1 6.756118e-08 0.555556 0.000000
-1.111112 -5.784751e-07 10 8.742276e-08 1 6.756118e-08 0.444444 0.000000
-3.333334 -3.842024e-07 10 8.742284e-08 1 6.756115e-08 0.333333 0.000000
-5.555556 -1.899293e-07 10 8.742278e-08 1 6.756115e-08 0.222222 0.000000
-7.777778 4.343462e-09 10 8.742279e-08 1 6.756115e-08 0.111111 0.000000
-9.999999 1.986163e-07 10 8.742283e-08 1 6.756115e-08 0.000000 0.000000
9.999999 -1.399703e-06 7.777778 8.742276e-08 1 6.756118e-08 1.000000 0.111111
7.777777 -1.205431e-06 7.777778 8.742276e-08 1 6.756116e-08 0.888889 0.111111
5.555555 -1.011158e-06 7.777778 8.74228e-08 1 6.756115e-08 0.777778 0.111111
3.333334 -8.168848e-07 7.777778 8.742278e-08 1 6.756114e-08 0.666667 0.111111
1.11111 -6.22612e-07 7.777778 8.742276e-08 1 6.756115e-08 0.555556 0.111111
-1.111112 -4.283391e-07 7.777778 8.742276e-08 1 6.756116e-08 0.444444 0.111111
-3.333334 -2.340664e-07 7.777778 8.742279e-08 1 6.756115e-08 0.333333 0.111111
-5.555556 -3.979338e-08 7.777778 8.742281e-08 1 6.756114e-08 0.222222 0.111111
-7.777778 1.544794e-07 7.777778 8.742278e-08 1 6.756114e-08 0.111111 0.111111
-9.999999 3.487522e-07 7.777778 8.742283e-08 1 6.756115e-08 0.000000 0.111111
9.999999 -1.249568e-06 5.555556 8.742279e-08 1 6.756112e-08 1.000000 0.222222
7.777777 -1.055295e-06 5.555556 8.742274e-08 1 6.756114e-08 0.888889 0.222222
5.555555 -8.61022e-07 5.555556 8.742279e-08 1 6.756115e-08 0.777778 0.222222
3.333334 -6.66749e-07 5.555556 8.742277e-08 1 6.756114e-08 0.666667 0.222222
1.11111 -4.724762e-07 5.555556 8.742276e-08 1 6.756115e-08 0.555556 0.222222
-1.111112 -2.782033e-07 5.555556 8.742277e-08 1 6.756114e-08 0.444444 0.222222
-3.333334 -8.393059e-08 5.555556 8.74228e-08 1 6.756115e-08 0.333333 0.222222
-5.555556 1.103425e-07 5.555556 8.74228e-08 1 6.756115e-08 0.222222 0.222222
-7.777778 3.046152e-07 5.555556 8.742278e-08 1 6.756116e-08 0.111111 0.222222
-9.999999 4.98888e-07 5.555556 8.742284e-08 1 6.756115e-08 0.000000 0.222222
9.999999 -1.099432e-06 3.333334 8.742279e-08 1 6.756114e-08 1.000000 0.333333
7.777777 -9.051588e-07 3.333334 8.742276e-08 1 6.756114e-08 0.888889 0.333333
5.555555 -7.108861e-07 3.333334 8.742279e-08 1 6.756115e-08 0.777778 0.333333
3.333334 -5.166131e-07 3.333334 8.742276e-08 1 6.756115e-08 0.666667 0.333333
1.11111 -3.223403e-07 3.333334 8.742276e-08 1 6.756114e-08 0.555556 0.333333
-1.111112 -1.280675e-07 3.333334 8.742278e-08 1 6.756114e-08 0.444444 0.333333
-3.333334 6.620527e-08 3.333334 8.74228e-08 1 6.756114e-08 0.333333 0.333333
-5.555556 2.604783e-07 3.333334 8.742281e-08 1 6.756114e-08 0.222222 0.333333
-7.777778 4.547511e-07 3.333334 8.742278e-08 1 6.756115e-08 0.111111 0.333333
-9.999999 6.490239e-07 3.333334 8.742283e-08 1 6.756117e-08 0.000000 0.333333
9.999999 -9.492957e-07 1.11111 8.742279e-08 1 6.756113e-08 1.000000 0.444444
7.777777 -7.550228e-07 1.11111 8.742276e-08 1 6.756114e-08 0.888889 0.444444
5.555555 -5.607501e-07 1.11111 8.742281e-08 1 6.756115e-08 0.777778 0.444444
3.333334 -3.664771e-07 1.11111 8.742277e-08 1 6.756114e-08 0.666667 0.444444
1.11111 -1.722043e-07 1.11111 8.742276e-08 1 6.756115e-08 0.555556 0.444444
-1.111112 2.206857e-08 1.11111 8.742277e-08 1 6.756115e-08 0.444444 0.444444
-3.333334 2.163413e-07 1.11111 8.742279e-08 1 6.756114e-08 0.333333 0.444444
-5.555556 4.106143e-07 1.11111 8.74228e-08 1 6.756114e-08 0.222222 0.444444
-7.777778 6.048871e-07 1.11111 8.742278e-08 1 6.756113e-08 0.111111 0.444444
-9.999999 7.991599e-07 1.11111 8.742283e-08 1 6.756113e-08 0.000000 0.444444
9.999999 -7.991599e-07 -1.111112 8.742279e-08 1 6.756115e-08 1.000000 0.555556
7.777777 -6.04887e-07 -1.111112 8.742278e-08 1 6.756115e-08 0.888889 0.555556
5.555555 -4.106143e-07 -1.111112 8.742281e-08 1 6.756115e-08 0.777778 0.555556
3.333334 -2.163412e-07 -1.111112 8.742277e-08 1 6.756115e-08 0.666667 0.555556
1.11111 -2.206844e-08 -1.111112 8.742276e-08 1 6.756115e-08 0.555556 0.555556
-1.111112 1.722044e-07 -1.111112 8.742277e-08 1 6.756115e-08 0.444444 0.555556
-3.333334 3.664771e-07 -1.111112 8.742279e-08 1 6.756115e-08 0.333333 0.555556
-5.555556 5.607502e-07 -1.111112 8.74228e-08 1 6.756115e-08 0.222222 0.555556
-7.777778 7.550229e-07 -1.111112 8.742278e-08 1 6.756115e-08 0.111111 0.555556
-9.999999 9.492957e-07 -1.111112 8.742283e-08 1 6.756115e-08 0.000000 0.555556
9.999999 -6.490239e-07 -3.333334 8.742278e-08 1 6.756118e-08 1.000000 0.666667
7.777777 -4.547511e-07 -3.333334 8.742277e-08 1 6.756117e-08 0.888889 0.666667
5.555555 -2.604783e-07 -3.333334 8.742282e-08 1 6.756116e-08 0.777778 0.666667
3.333334 -6.620533e-08 -3.333334 8.742277e-08 1 6.756116e-08 0.666667 0.666667
1.11111 1.280675e-07 -3.333334 8.742276e-08 1 6.756115e-08 0.555556 0.666667
-1.111112 3.223403e-07 -3.333334 8.742277e-08 1 6.756115e-08 0.444444 0.666667
-3.333334 5.16613e-07 -3.333334 8.74228e-08 1 6.756117e-08 0.333333 0.666667
-5.555556 7.108861e-07 -3.333334 8.742281e-08 1 6.756117e-08 0.222222 0.666667
-7.777778 9.051588e-07 -3.333334 8.742278e-08 1 6.756117e-08 0.111111 0.666667
-9.999999 1.099432e-06 -3.333334 8.742284e-08 1 6.756117e-08 0.000000 0.666667
9.999999 -4.98888e-07 -5.555556 8.742278e-08 1 6.756115e-08 1.000000 0.777778
7.777777 -3.046152e-07 -5.555556 8.742276e-08 1 6.756116e-08 0.888889 0.777778
5.555555 -1.103424e-07 -5.555556 8.742281e-08 1 6.756115e-08 0.777778 0.777778
3.333334 8.393059e-08 -5.555556 8.742277e-08 1 6.756115e-08 0.666667 0.777778
1.11111 2.782033e-07 -5.555556 8.742276e-08 1 6.756115e-08 0.555556 0.777778
-1.111112 4.724762e-07 -5.555556 8.742278e-08 1 6.756114e-08 0.444444 0.777778
-3.333334 6.66749e-07 -5.555556 8.74228e-08 1 6.756115e-08 0.333333 0.777778
-5.555556 8.61022e-07 -5.555556 8.74228e-08 1 6.756116e-08 0.222222 0.777778
-7.777778 1.055295e-06 -5.555556 8.742279e-08 1 6.756117e-08 0.111111 0.777778
-9.999999 1.249568e-06 -5.555556 8.742284e-08 1 6.756119e-08 0.000000 0.777778
9.999999 -3.487521e-07 -7.777779 8.742279e-08 1 6.756114e-08 1.000000 0.888889
7.777777 -1.544793e-07 -7.777779 8.742276e-08 1 6.756115e-08 0.888889 0.888889
5.555555 3.979343e-08 -7.777779 8.742281e-08 1 6.756115e-08 0.777778 0.888889
3.333334 2.340664e-07 -7.777779 8.742278e-08 1 6.756115e-08 0.666667 0.888889
1.11111 4.283393e-07 -7.777779 8.742276e-08 1 6.756115e-08 0.555556 0.888889
-1.111112 6.226121e-07 -7.777779 8.742278e-08 1 6.756115e-08 0.444444 0.888889
-3.333334 8.168848e-07 -7.777779 8.74228e-08 1 6.756115e-08 0.333333 0.888889
-5.555556 1.011158e-06 -7.777779 8.742279e-08 1 6.756114e-08 0.222222 0.888889
-7.777778 1.205431e-06 -7.777779 8.742281e-08 1 6.756112e-08 0.111111 0.888889
-9.999999 1.399704e-06 -7.777779 8.742287e-08 1 6.756116e-08 0.000000 0.888889
9.999999 -1.986163e-07 -10 8.742279e-08 1 6.756115e-08 1.000000 1.000000
7.777777 -4.343462e-09 -10 8.742277e-08 1 6.756115e-08 0.888889 1.000000
5.555555 1.899293e-07 -10 8.742279e-08 1 6.756115e-08 0.777778 1.000000
3.333334 3.842023e-07 -10 8.742282e-08 1 6.756116e-08 0.666667 1.000000
1.11111 5.784751e-07 -10 8.742273e-08 1 6.756116e-08 0.555556 1.000000
-1.111112 7.72748e-07 -10 8.742279e-08 1 6.756117e-08 0.444444 1.000000
-3.333334 9.670207e-07 -10 8.742277e-08 1 6.756116e-08 0.333333 1.000000
-5.555556 1.161294e-06 -10 8.742281e-08 1 6.756116e-08 0.222222 1.000000
-7.777778 1.355566e-06 -10 8.742278e-08 1 6.756112e-08 0.111111 1.000000
-9.999999 1.549839e-06 -10 8.74229e-08 1 6.756114e-08 0.000000 1.000000
3 11 1 0 
3 0 10 11 
3 12 2 1 
3 1 11 12 
3 13 3 2 
3 2 12 13 
3 14 4 3 
3 3 13 14 
3 15 5 4 
3 4 14 15 
3 16 6 5 
3 5 15 16 
3 17 7 6 
3 6 16 17 
3 18 8 7 
3 7 17 18 
3 19 9 8 
3 8 18 19 
3 21 11 10 
3 10 20 21 
3 22 12 11 
3 11 21 22 
3 23 13 12 
3 12 22 23 
3 24 14 13 
3 13 23 24 
3 25 15 14 
3 14 24 25 
3 26 16 15 
3 15 25 26 
3 27 17 16 
3 16 26 27 
3 28 18 17 
3 17 27 28 
3 29 19 18 
3 18 28 29 
3 31 21 20 
3 20 30 31 
3 32 22 21 
3 21 31 32 
3 33 23 22 
3 22 32 33 
3 34 24 23 
3 23 33 34 
3 35 25 24 
3 24 34 35 
3 36 26 25 
3 25 35 36 
3 37 27 26 
3 26 36 37 
3 38 28 27 
3 27 37 38 
3 39 29 28 
3 28 38 39 
3 41 31 30 
3 30 40 41 
3 42 32 31 
3 31 41 42 
3 43 33 32 
3 32 42 43 
3 44 34 33 
3 33 43 44 
3 45 35 34 
3 34 44 45 
3 46 36 35 
3 35 45 46 
3 47 37 36 
3 36 46 47 
3 48 38 37 
3 37 47 48 
3 49 39 38 
3 38 48 49 
3 51 41 40 
3 40 50 51 
3 52 42 41 
3 41 51 52 
3 53 43 42 
3 42 52 53 
3 54 44 43 
3 43 53 54 
3 55 45 44 
3 44 54 55 
3 56 46 45 
3 45 55 56 
3 57 47 46 
3 46 56 57 
3 58 48 47 
3 47 57 58 
3 59 49 48 
3 48 58 59 
3 61 51 50 
3 50 60 61 
3 62 52 51 
3 51 61 62 
3 63 53 52 
3 52 62 63 
3 64 54 53 
3 53 63 64 
3 65 55 54 
3 54 64 65 
3 66 56 55 
3 55 65 66 
3 67 57 56 
3 56 66 67 
3 68 58 57 
3 57 67 68 
3 69 59 58 
3 58 68 69 
3 71 61 60 
3 60 70 71 
3 72 62 61 
3 61 71 72 
3 73 63 62 
3 62 72 73 
3 74 64 63 
3 63 73 74 
3 75 65 64 
3 64 74 75 
3 76 66 65 
3 65 75 76 
3 77 67 66 
3 66 76 77 
3 78 68 67 
3 67 77 78 
3 79 69 68 
3 68 78 79 
3 81 71 70 
3 70 80 81 
3 82 72 71 
3 71 81 82 
3 83 73 72 
3 72 82 83 
3 84 74 73 
3 73 83 84 
3 85 75 74 
3 74 84 85 
3 86 76 75 
3 75 85 86 
3 87 77 76 
3 76 86 87 
3 88 78 77 
3 77 87 88 
3 89 79 78 
3 78 88 89 
3 91 81 80 
3 80 90 91 
3 92 82 81 
3 81 91 92 
3 93 83 82 
3 82 92 93 
3 94 84 83 
3 83 93 94 
3 95 85 84 
3 84 94 95 
3 96 86 85 
3 85 95 96 
3 97 87 86 
3 86 96 97 
3 98 88 87 
3 87 97 98 
3 99 89 88 
3 88 98 99 
