ply
format ascii 1.0
comment VCGLIB generated
element vertex 100
property float x
property float y
property float z
property float nx
property float ny
property float nz
property float texture_u
property float texture_v
element face 162
property list uchar int vertex_indices
end_header
0 50 50 -1 -1.192488e-08 1.192495e-08 1.000000 1.000000
1.324993e-07 38.88889 50 -1 -1.19249e-08 1.192497e-08 1.000000 0.888889
2.649974e-07 27.77778 50 -1 -1.192489e-08 1.192492e-08 1.000000 0.777778
3.974965e-07 16.66667 50 -1 -1.192488e-08 1.19249e-08 1.000000 0.666667
5.299947e-07 5.555557 50 -1 -1.192487e-08 1.192487e-08 1.000000 0.555556
6.624934e-07 -5.555553 50 -1 -1.192487e-08 1.192488e-08 1.000000 0.444444
7.949919e-07 -16.66666 50 -1 -1.192491e-08 1.192487e-08 1.000000 0.333333
9.274908e-07 -27.77777 50 -1 -1.192489e-08 1.192488e-08 1.000000 0.222222
1.059991e-06 -38.88889 50 -1 -1.192489e-08 1.192494e-08 1.000000 0.111111
1.192488e-06 -50 50 -1 -1.192475e-08 1.192481e-08 1.000000 0.000000
-1.324988e-07 50 38.88889 -1 -1.192486e-08 1.192487e-08 0.888889 1.000000
-6.82121e-13 38.88889 38.88889 -1 -1.192487e-08 1.19249e-08 0.888889 0.888889
1.324984e-07 27.77778 38.88889 -1 -1.19249e-08 1.192493e-08 0.888889 0.777778
2.649974e-07 16.66667 38.88889 -1 -1.192491e-08 1.192491e-08 0.888889 0.666667
3.974962e-07 5.555557 38.88889 -1 -1.192488e-08 1.192488e-08 0.888889 0.555556
5.299948e-07 -5.555553 38.88889 -1 -1.192487e-08 1.192488e-08 0.888889 0.444444
6.624932e-07 -16.66666 38.88889 -1 -1.19249e-08 1.192488e-08 0.888889 0.333333
7.949927e-07 -27.77777 38.88889 -1 -1.19249e-08 1.192485e-08 0.888889 0.222222
9.274906e-07 -38.88889 38.88889 -1 -1.192487e-08 1.192487e-08 0.888889 0.111111
1.05999e-06 -50 38.88889 -1 -1.192487e-08 1.192491e-08 0.888889 0.000000
-2.649977e-07 50 27.77778 -1 -1.192492e-08 1.192486e-08 0.777778 1.000000
-1.324986e-07 38.88889 27.77778 -1 -1.192486e-08 1.192483e-08 0.777778 0.888889
-6.82121e-13 27.77778 27.77778 -1 -1.192489e-08 1.192485e-08 0.777778 0.777778
1.324985e-07 16.66667 27.77778 -1 -1.192491e-08 1.192488e-08 0.777778 0.666667
2.649976e-07 5.555557 27.77778 -1 -1.192489e-08 1.192488e-08 0.777778 0.555556
3.974962e-07 -5.555553 27.77778 -1 -1.192487e-08 1.192489e-08 0.777778 0.444444
5.299947e-07 -16.66666 27.77778 -1 -1.192489e-08 1.192489e-08 0.777778 0.333333
6.624938e-07 -27.77777 27.77778 -1 -1.192494e-08 1.192492e-08 0.777778 0.222222
7.949936e-07 -38.88889 27.77778 -1 -1.192485e-08 1.192488e-08 0.777778 0.111111
9.274909e-07 -50 27.77778 -1 -1.192481e-08 1.192486e-08 0.777778 0.000000
-3.97496e-07 50 16.66667 -1 -1.192494e-08 1.192488e-08 0.666667 1.000000
-2.649967e-07 38.88889 16.66667 -1 -1.192488e-08 1.192487e-08 0.666667 0.888889
-1.324986e-07 27.77778 16.66667 -1 -1.192487e-08 1.192487e-08 0.666667 0.777778
4.547474e-13 16.66667 16.66667 -1 -1.19249e-08 1.192486e-08 0.666667 0.666667
1.32499e-07 5.555557 16.66667 -1 -1.192488e-08 1.192487e-08 0.666667 0.555556
2.649975e-07 -5.555553 16.66667 -1 -1.192485e-08 1.192489e-08 0.666667 0.444444
3.974958e-07 -16.66666 16.66667 -1 -1.19249e-08 1.192489e-08 0.666667 0.333333
5.299947e-07 -27.77777 16.66667 -1 -1.192489e-08 1.192488e-08 0.666667 0.222222
6.624937e-07 -38.88889 16.66667 -1 -1.192489e-08 1.192493e-08 0.666667 0.111111
7.949918e-07 -50 16.66667 -1 -1.192481e-08 1.192491e-08 0.666667 0.000000
-5.299948e-07 50 5.555557 -1 -1.192494e-08 1.192491e-08 0.555556 1.000000
-3.974956e-07 38.88889 5.555557 -1 -1.192488e-08 1.19249e-08 0.555556 0.888889
-2.649977e-07 27.77778 5.555557 -1 -1.192487e-08 1.192491e-08 0.555556 0.777778
-1.324986e-07 16.66667 5.555557 -1 -1.19249e-08 1.192491e-08 0.555556 0.666667
1.705303e-13 5.555557 5.555557 -1 -1.192488e-08 1.192489e-08 0.555556 0.555556
1.324988e-07 -5.555553 5.555557 -1 -1.192485e-08 1.192487e-08 0.555556 0.444444
2.649967e-07 -16.66666 5.555557 -1 -1.19249e-08 1.192488e-08 0.555556 0.333333
3.974967e-07 -27.77777 5.555557 -1 -1.192492e-08 1.192485e-08 0.555556 0.222222
5.299946e-07 -38.88889 5.555557 -1 -1.192485e-08 1.192484e-08 0.555556 0.111111
6.624939e-07 -50 5.555557 -1 -1.19249e-08 1.192488e-08 0.555556 0.000000
-6.624939e-07 50 -5.555553 -1 -1.192494e-08 1.192485e-08 0.444444 1.000000
-5.299946e-07 38.88889 -5.555553 -1 -1.192488e-08 1.192487e-08 0.444444 0.888889
-3.974967e-07 27.77778 -5.555553 -1 -1.192487e-08 1.192487e-08 0.444444 0.777778
-2.649975e-07 16.66667 -5.555553 -1 -1.192491e-08 1.192488e-08 0.444444 0.666667
-1.324985e-07 5.555557 -5.555553 -1 -1.192489e-08 1.192489e-08 0.444444 0.555556
1.705303e-13 -5.555553 -5.555553 -1 -1.192487e-08 1.192489e-08 0.444444 0.444444
1.324987e-07 -16.66666 -5.555553 -1 -1.192488e-08 1.192487e-08 0.444444 0.333333
2.649977e-07 -27.77777 -5.555553 -1 -1.192495e-08 1.192491e-08 0.444444 0.222222
3.974976e-07 -38.88889 -5.555553 -1 -1.192486e-08 1.192488e-08 0.444444 0.111111
5.299948e-07 -50 -5.555553 -1 -1.192481e-08 1.192485e-08 0.444444 0.000000
-7.949918e-07 50 -16.66666 -1 -1.192494e-08 1.192489e-08 0.333333 1.000000
-6.624925e-07 38.88889 -16.66666 -1 -1.192487e-08 1.192487e-08 0.333333 0.888889
-5.299946e-07 27.77778 -16.66666 -1 -1.192487e-08 1.192487e-08 0.333333 0.777778
-3.974956e-07 16.66667 -16.66666 -1 -1.192489e-08 1.192486e-08 0.333333 0.666667
-2.649971e-07 5.555557 -16.66666 -1 -1.192488e-08 1.192487e-08 0.333333 0.555556
-1.324985e-07 -5.555553 -16.66666 -1 -1.192487e-08 1.192487e-08 0.333333 0.444444
-2.273737e-13 -16.66666 -16.66666 -1 -1.192489e-08 1.192486e-08 0.333333 0.333333
1.324988e-07 -27.77777 -16.66666 -1 -1.192489e-08 1.192488e-08 0.333333 0.222222
2.649977e-07 -38.88889 -16.66666 -1 -1.19249e-08 1.192493e-08 0.333333 0.111111
3.97496e-07 -50 -16.66666 -1 -1.192482e-08 1.192492e-08 0.333333 0.000000
-9.274909e-07 50 -27.77777 -1 -1.192494e-08 1.192491e-08 0.222222 1.000000
-7.949916e-07 38.88889 -27.77777 -1 -1.192488e-08 1.192491e-08 0.222222 0.888889
-6.624937e-07 27.77778 -27.77777 -1 -1.192487e-08 1.19249e-08 0.222222 0.777778
-5.299946e-07 16.66667 -27.77777 -1 -1.19249e-08 1.19249e-08 0.222222 0.666667
-3.974958e-07 5.555557 -27.77777 -1 -1.192488e-08 1.192488e-08 0.222222 0.555556
-2.649971e-07 -5.555553 -27.77777 -1 -1.192489e-08 1.192488e-08 0.222222 0.444444
-1.324983e-07 -16.66666 -27.77777 -1 -1.19249e-08 1.192487e-08 0.222222 0.333333
6.82121e-13 -27.77777 -27.77777 -1 -1.192487e-08 1.192484e-08 0.222222 0.222222
1.324986e-07 -38.88889 -27.77777 -1 -1.192486e-08 1.192486e-08 0.222222 0.111111
2.649977e-07 -50 -27.77777 -1 -1.192489e-08 1.192489e-08 0.222222 0.000000
-1.05999e-06 50 -38.88889 -1 -1.192494e-08 1.192484e-08 0.111111 1.000000
-9.274906e-07 38.88889 -38.88889 -1 -1.192488e-08 1.192486e-08 0.111111 0.888889
-7.949926e-07 27.77778 -38.88889 -1 -1.192487e-08 1.192487e-08 0.111111 0.777778
-6.624933e-07 16.66667 -38.88889 -1 -1.192492e-08 1.192489e-08 0.111111 0.666667
-5.299945e-07 5.555557 -38.88889 -1 -1.192488e-08 1.192489e-08 0.111111 0.555556
-3.974958e-07 -5.555553 -38.88889 -1 -1.192488e-08 1.19249e-08 0.111111 0.444444
-2.649972e-07 -16.66666 -38.88889 -1 -1.19249e-08 1.19249e-08 0.111111 0.333333
-1.324981e-07 -27.77777 -38.88889 -1 -1.19249e-08 1.19249e-08 0.111111 0.222222
6.82121e-13 -38.88889 -38.88889 -1 -1.192485e-08 1.192487e-08 0.111111 0.111111
1.324988e-07 -50 -38.88889 -1 -1.192486e-08 1.192486e-08 0.111111 0.000000
-1.192488e-06 50 -50 -1 -1.192494e-08 1.192481e-08 0.000000 1.000000
-1.059989e-06 38.88889 -50 -1 -1.19249e-08 1.192481e-08 0.000000 0.888889
-9.274906e-07 27.77778 -50 -1 -1.192484e-08 1.192482e-08 0.000000 0.777778
-7.949922e-07 16.66667 -50 -1 -1.19249e-08 1.192487e-08 0.000000 0.666667
-6.624931e-07 5.555557 -50 -1 -1.192488e-08 1.192489e-08 0.000000 0.555556
-5.299951e-07 -5.555553 -50 -1 -1.192487e-08 1.192492e-08 0.000000 0.444444
-3.974963e-07 -16.66666 -50 -1 -1.19249e-08 1.192492e-08 0.000000 0.333333
-2.649972e-07 -27.77777 -50 -1 -1.192491e-08 1.192492e-08 0.000000 0.222222
-1.324984e-07 -38.88889 -50 -1 -1.192488e-08 1.192492e-08 0.000000 0.111111
0 -50 -50 -1 -1.192484e-08 1.192491e-08 0.000000 0.000000
3 11 1 0 
3 0 10 11 
3 12 2 1 
3 1 11 12 
3 13 3 2 
3 2 12 13 
3 14 4 3 
3 3 13 14 
3 15 5 4 
3 4 14 15 
3 16 6 5 
3 5 15 16 
3 17 7 6 
3 6 16 17 
3 18 8 7 
3 7 17 18 
3 19 9 8 
3 8 18 19 
3 21 11 10 
3 10 20 21 
3 22 12 11 
3 11 21 22 
3 23 13 12 
3 12 22 23 
3 24 14 13 
3 13 23 24 
3 25 15 14 
3 14 24 25 
3 26 16 15 
3 15 25 26 
3 27 17 16 
3 16 26 27 
3 28 18 17 
3 17 27 28 
3 29 19 18 
3 18 28 29 
3 31 21 20 
3 20 30 31 
3 32 22 21 
3 21 31 32 
3 33 23 22 
3 22 32 33 
3 34 24 23 
3 23 33 34 
3 35 25 24 
3 24 34 35 
3 36 26 25 
3 25 35 36 
3 37 27 26 
3 26 36 37 
3 38 28 27 
3 27 37 38 
3 39 29 28 
3 28 38 39 
3 41 31 30 
3 30 40 41 
3 42 32 31 
3 31 41 42 
3 43 33 32 
3 32 42 43 
3 44 34 33 
3 33 43 44 
3 45 35 34 
3 34 44 45 
3 46 36 35 
3 35 45 46 
3 47 37 36 
3 36 46 47 
3 48 38 37 
3 37 47 48 
3 49 39 38 
3 38 48 49 
3 51 41 40 
3 40 50 51 
3 52 42 41 
3 41 51 52 
3 53 43 42 
3 42 52 53 
3 54 44 43 
3 43 53 54 
3 55 45 44 
3 44 54 55 
3 56 46 45 
3 45 55 56 
3 57 47 46 
3 46 56 57 
3 58 48 47 
3 47 57 58 
3 59 49 48 
3 48 58 59 
3 61 51 50 
3 50 60 61 
3 62 52 51 
3 51 61 62 
3 63 53 52 
3 52 62 63 
3 64 54 53 
3 53 63 64 
3 65 55 54 
3 54 64 65 
3 66 56 55 
3 55 65 66 
3 67 57 56 
3 56 66 67 
3 68 58 57 
3 57 67 68 
3 69 59 58 
3 58 68 69 
3 71 61 60 
3 60 70 71 
3 72 62 61 
3 61 71 72 
3 73 63 62 
3 62 72 73 
3 74 64 63 
3 63 73 74 
3 75 65 64 
3 64 74 75 
3 76 66 65 
3 65 75 76 
3 77 67 66 
3 66 76 77 
3 78 68 67 
3 67 77 78 
3 79 69 68 
3 68 78 79 
3 81 71 70 
3 70 80 81 
3 82 72 71 
3 71 81 82 
3 83 73 72 
3 72 82 83 
3 84 74 73 
3 73 83 84 
3 85 75 74 
3 74 84 85 
3 86 76 75 
3 75 85 86 
3 87 77 76 
3 76 86 87 
3 88 78 77 
3 77 87 88 
3 89 79 78 
3 78 88 89 
3 91 81 80 
3 80 90 91 
3 92 82 81 
3 81 91 92 
3 93 83 82 
3 82 92 93 
3 94 84 83 
3 83 93 94 
3 95 85 84 
3 84 94 95 
3 96 86 85 
3 85 95 96 
3 97 87 86 
3 86 96 97 
3 98 88 87 
3 87 97 98 
3 99 89 88 
3 88 98 99 
