ply
format ascii 1.0
comment VCGLIB generated
element vertex 100
property float x
property float y
property float z
property float nx
property float ny
property float nz
property float texture_u
property float texture_v
element face 162
property list uchar int vertex_indices
end_header
50 -4.967383e-06 50 8.742277e-08 1 1.192485e-08 1.000000 1.000000
38.88889 -3.996019e-06 50 8.742277e-08 1 1.192486e-08 1.000000 0.888889
27.77778 -3.024655e-06 50 8.742277e-08 1 1.192488e-08 1.000000 0.777778
16.66667 -2.053291e-06 50 8.742277e-08 1 1.192489e-08 1.000000 0.666667
5.555557 -1.081926e-06 50 8.742277e-08 1 1.192488e-08 1.000000 0.555556
-5.555553 -1.105623e-07 50 8.742277e-08 1 1.192488e-08 1.000000 0.444444
-16.66666 8.608018e-07 50 8.742277e-08 1 1.192488e-08 1.000000 0.333333
-27.77777 1.832166e-06 50 8.742276e-08 1 1.192487e-08 1.000000 0.222222
-38.88889 2.80353e-06 50 8.742279e-08 1 1.192487e-08 1.000000 0.111111
-50 3.774895e-06 50 8.742281e-08 1 1.192487e-08 1.000000 0.000000
50 -4.834884e-06 38.88889 8.742276e-08 1 1.192488e-08 0.888889 1.000000
38.88889 -3.86352e-06 38.88889 8.742277e-08 1 1.192488e-08 0.888889 0.888889
27.77778 -2.892156e-06 38.88889 8.742278e-08 1 1.192488e-08 0.888889 0.777778
16.66667 -1.920792e-06 38.88889 8.742278e-08 1 1.192488e-08 0.888889 0.666667
5.555557 -9.494278e-07 38.88889 8.742278e-08 1 1.192488e-08 0.888889 0.555556
-5.555553 2.193636e-08 38.88889 8.742278e-08 1 1.192488e-08 0.888889 0.444444
-16.66666 9.933005e-07 38.88889 8.742277e-08 1 1.192488e-08 0.888889 0.333333
-27.77777 1.964664e-06 38.88889 8.742276e-08 1 1.192489e-08 0.888889 0.222222
-38.88889 2.936029e-06 38.88889 8.742278e-08 1 1.192489e-08 0.888889 0.111111
-50 3.907393e-06 38.88889 8.742281e-08 1 1.192488e-08 0.888889 0.000000
50 -4.702385e-06 27.77778 8.742277e-08 1 1.192487e-08 0.777778 1.000000
38.88889 -3.731021e-06 27.77778 8.742277e-08 1 1.192489e-08 0.777778 0.888889
27.77778 -2.759657e-06 27.77778 8.742277e-08 1 1.192489e-08 0.777778 0.777778
16.66667 -1.788293e-06 27.77778 8.742277e-08 1 1.192488e-08 0.777778 0.666667
5.555557 -8.169292e-07 27.77778 8.742278e-08 1 1.192488e-08 0.777778 0.555556
-5.555553 1.54435e-07 27.77778 8.742277e-08 1 1.192488e-08 0.777778 0.444444
-16.66666 1.125799e-06 27.77778 8.742278e-08 1 1.192488e-08 0.777778 0.333333
-27.77777 2.097163e-06 27.77778 8.742277e-08 1 1.192488e-08 0.777778 0.222222
-38.88889 3.068527e-06 27.77778 8.742278e-08 1 1.192488e-08 0.777778 0.111111
-50 4.039892e-06 27.77778 8.742281e-08 1 1.192488e-08 0.777778 0.000000
50 -4.569887e-06 16.66667 8.742277e-08 1 1.192488e-08 0.666667 1.000000
38.88889 -3.598523e-06 16.66667 8.742278e-08 1 1.192487e-08 0.666667 0.888889
27.77778 -2.627159e-06 16.66667 8.742278e-08 1 1.192488e-08 0.666667 0.777778
16.66667 -1.655795e-06 16.66667 8.742277e-08 1 1.192488e-08 0.666667 0.666667
5.555557 -6.844305e-07 16.66667 8.742278e-08 1 1.192488e-08 0.666667 0.555556
-5.555553 2.869337e-07 16.66667 8.742277e-08 1 1.192488e-08 0.666667 0.444444
-16.66666 1.258298e-06 16.66667 8.742277e-08 1 1.192488e-08 0.666667 0.333333
-27.77777 2.229662e-06 16.66667 8.742277e-08 1 1.192488e-08 0.666667 0.222222
-38.88889 3.201026e-06 16.66667 8.742278e-08 1 1.192488e-08 0.666667 0.111111
-50 4.172391e-06 16.66667 8.74228e-08 1 1.192487e-08 0.666667 0.000000
50 -4.437388e-06 5.555557 8.742276e-08 1 1.192489e-08 0.555556 1.000000
38.88889 -3.466024e-06 5.555557 8.742278e-08 1 1.192489e-08 0.555556 0.888889
27.77778 -2.49466e-06 5.555557 8.742278e-08 1 1.192488e-08 0.555556 0.777778
16.66667 -1.523296e-06 5.555557 8.742277e-08 1 1.192488e-08 0.555556 0.666667
5.555557 -5.519318e-07 5.555557 8.742277e-08 1 1.192488e-08 0.555556 0.555556
-5.555553 4.194324e-07 5.555557 8.742278e-08 1 1.192488e-08 0.555556 0.444444
-16.66666 1.390797e-06 5.555557 8.742277e-08 1 1.192488e-08 0.555556 0.333333
-27.77777 2.36216e-06 5.555557 8.742276e-08 1 1.192489e-08 0.555556 0.222222
-38.88889 3.333525e-06 5.555557 8.742278e-08 1 1.192489e-08 0.555556 0.111111
-50 4.304889e-06 5.555557 8.742281e-08 1 1.192489e-08 0.555556 0.000000
50 -4.304889e-06 -5.555553 8.742277e-08 1 1.192487e-08 0.444444 1.000000
38.88889 -3.333525e-06 -5.555553 8.742277e-08 1 1.192489e-08 0.444444 0.888889
27.77778 -2.362161e-06 -5.555553 8.742277e-08 1 1.192489e-08 0.444444 0.777778
16.66667 -1.390797e-06 -5.555553 8.742277e-08 1 1.192488e-08 0.444444 0.666667
5.555557 -4.194331e-07 -5.555553 8.742278e-08 1 1.192488e-08 0.444444 0.555556
-5.555553 5.51931e-07 -5.555553 8.742277e-08 1 1.192488e-08 0.444444 0.444444
-16.66666 1.523295e-06 -5.555553 8.742278e-08 1 1.192488e-08 0.444444 0.333333
-27.77777 2.494659e-06 -5.555553 8.742277e-08 1 1.192488e-08 0.444444 0.222222
-38.88889 3.466023e-06 -5.555553 8.742278e-08 1 1.192488e-08 0.444444 0.111111
-50 4.437388e-06 -5.555553 8.742281e-08 1 1.192488e-08 0.444444 0.000000
50 -4.172391e-06 -16.66666 8.742278e-08 1 1.192488e-08 0.333333 1.000000
38.88889 -3.201027e-06 -16.66666 8.742278e-08 1 1.192487e-08 0.333333 0.888889
27.77778 -2.229663e-06 -16.66666 8.742278e-08 1 1.192488e-08 0.333333 0.777778
16.66667 -1.258299e-06 -16.66666 8.742277e-08 1 1.192488e-08 0.333333 0.666667
5.555557 -2.869345e-07 -16.66666 8.742277e-08 1 1.192488e-08 0.333333 0.555556
-5.555553 6.844297e-07 -16.66666 8.742278e-08 1 1.192488e-08 0.333333 0.444444
-16.66666 1.655794e-06 -16.66666 8.742278e-08 1 1.192488e-08 0.333333 0.333333
-27.77777 2.627158e-06 -16.66666 8.742277e-08 1 1.192488e-08 0.333333 0.222222
-38.88889 3.598522e-06 -16.66666 8.742278e-08 1 1.192488e-08 0.333333 0.111111
-50 4.569887e-06 -16.66666 8.74228e-08 1 1.192488e-08 0.333333 0.000000
50 -4.039892e-06 -27.77777 8.742276e-08 1 1.192489e-08 0.222222 1.000000
38.88889 -3.068528e-06 -27.77777 8.742277e-08 1 1.192488e-08 0.222222 0.888889
27.77778 -2.097164e-06 -27.77777 8.742278e-08 1 1.192488e-08 0.222222 0.777778
16.66667 -1.1258e-06 -27.77777 8.742278e-08 1 1.192488e-08 0.222222 0.666667
5.555557 -1.544358e-07 -27.77777 8.742278e-08 1 1.192488e-08 0.222222 0.555556
-5.555553 8.169283e-07 -27.77777 8.742278e-08 1 1.192488e-08 0.222222 0.444444
-16.66666 1.788292e-06 -27.77777 8.742278e-08 1 1.192488e-08 0.222222 0.333333
-27.77777 2.759656e-06 -27.77777 8.742277e-08 1 1.192488e-08 0.222222 0.222222
-38.88889 3.731021e-06 -27.77777 8.742278e-08 1 1.192489e-08 0.222222 0.111111
-50 4.702385e-06 -27.77777 8.742281e-08 1 1.192489e-08 0.222222 0.000000
50 -3.907393e-06 -38.88889 8.742276e-08 1 1.192488e-08 0.111111 1.000000
38.88889 -2.936029e-06 -38.88889 8.742276e-08 1 1.192488e-08 0.111111 0.888889
27.77778 -1.964665e-06 -38.88889 8.742278e-08 1 1.192488e-08 0.111111 0.777778
16.66667 -9.933012e-07 -38.88889 8.742278e-08 1 1.192488e-08 0.111111 0.666667
5.555557 -2.193713e-08 -38.88889 8.742278e-08 1 1.192488e-08 0.111111 0.555556
-5.555553 9.49427e-07 -38.88889 8.742278e-08 1 1.192488e-08 0.111111 0.444444
-16.66666 1.920791e-06 -38.88889 8.742277e-08 1 1.192488e-08 0.111111 0.333333
-27.77777 2.892155e-06 -38.88889 8.742276e-08 1 1.192488e-08 0.111111 0.222222
-38.88889 3.863519e-06 -38.88889 8.742279e-08 1 1.192487e-08 0.111111 0.111111
-50 4.834884e-06 -38.88889 8.742281e-08 1 1.192488e-08 0.111111 0.000000
50 -3.774895e-06 -50 8.742276e-08 1 1.192487e-08 0.000000 1.000000
38.88889 -2.803531e-06 -50 8.742277e-08 1 1.192487e-08 0.000000 0.888889
27.77778 -1.832167e-06 -50 8.742277e-08 1 1.192488e-08 0.000000 0.777778
16.66667 -8.608025e-07 -50 8.742277e-08 1 1.192488e-08 0.000000 0.666667
5.555557 1.105616e-07 -50 8.742278e-08 1 1.192488e-08 0.000000 0.555556
-5.555553 1.081926e-06 -50 8.742277e-08 1 1.192488e-08 0.000000 0.444444
-16.66666 2.05329e-06 -50 8.742278e-08 1 1.192488e-08 0.000000 0.333333
-27.77777 3.024654e-06 -50 8.742276e-08 1 1.192489e-08 0.000000 0.222222
-38.88889 3.996018e-06 -50 8.742277e-08 1 1.192486e-08 0.000000 0.111111
-50 4.967383e-06 -50 8.742281e-08 1 1.192485e-08 0.000000 0.000000
3 11 1 0 
3 0 10 11 
3 12 2 1 
3 1 11 12 
3 13 3 2 
3 2 12 13 
3 14 4 3 
3 3 13 14 
3 15 5 4 
3 4 14 15 
3 16 6 5 
3 5 15 16 
3 17 7 6 
3 6 16 17 
3 18 8 7 
3 7 17 18 
3 19 9 8 
3 8 18 19 
3 21 11 10 
3 10 20 21 
3 22 12 11 
3 11 21 22 
3 23 13 12 
3 12 22 23 
3 24 14 13 
3 13 23 24 
3 25 15 14 
3 14 24 25 
3 26 16 15 
3 15 25 26 
3 27 17 16 
3 16 26 27 
3 28 18 17 
3 17 27 28 
3 29 19 18 
3 18 28 29 
3 31 21 20 
3 20 30 31 
3 32 22 21 
3 21 31 32 
3 33 23 22 
3 22 32 33 
3 34 24 23 
3 23 33 34 
3 35 25 24 
3 24 34 35 
3 36 26 25 
3 25 35 36 
3 37 27 26 
3 26 36 37 
3 38 28 27 
3 27 37 38 
3 39 29 28 
3 28 38 39 
3 41 31 30 
3 30 40 41 
3 42 32 31 
3 31 41 42 
3 43 33 32 
3 32 42 43 
3 44 34 33 
3 33 43 44 
3 45 35 34 
3 34 44 45 
3 46 36 35 
3 35 45 46 
3 47 37 36 
3 36 46 47 
3 48 38 37 
3 37 47 48 
3 49 39 38 
3 38 48 49 
3 51 41 40 
3 40 50 51 
3 52 42 41 
3 41 51 52 
3 53 43 42 
3 42 52 53 
3 54 44 43 
3 43 53 54 
3 55 45 44 
3 44 54 55 
3 56 46 45 
3 45 55 56 
3 57 47 46 
3 46 56 57 
3 58 48 47 
3 47 57 58 
3 59 49 48 
3 48 58 59 
3 61 51 50 
3 50 60 61 
3 62 52 51 
3 51 61 62 
3 63 53 52 
3 52 62 63 
3 64 54 53 
3 53 63 64 
3 65 55 54 
3 54 64 65 
3 66 56 55 
3 55 65 66 
3 67 57 56 
3 56 66 67 
3 68 58 57 
3 57 67 68 
3 69 59 58 
3 58 68 69 
3 71 61 60 
3 60 70 71 
3 72 62 61 
3 61 71 72 
3 73 63 62 
3 62 72 73 
3 74 64 63 
3 63 73 74 
3 75 65 64 
3 64 74 75 
3 76 66 65 
3 65 75 76 
3 77 67 66 
3 66 76 77 
3 78 68 67 
3 67 77 78 
3 79 69 68 
3 68 78 79 
3 81 71 70 
3 70 80 81 
3 82 72 71 
3 71 81 82 
3 83 73 72 
3 72 82 83 
3 84 74 73 
3 73 83 84 
3 85 75 74 
3 74 84 85 
3 86 76 75 
3 75 85 86 
3 87 77 76 
3 76 86 87 
3 88 78 77 
3 77 87 88 
3 89 79 78 
3 78 88 89 
3 91 81 80 
3 80 90 91 
3 92 82 81 
3 81 91 92 
3 93 83 82 
3 82 92 93 
3 94 84 83 
3 83 93 94 
3 95 85 84 
3 84 94 95 
3 96 86 85 
3 85 95 96 
3 97 87 86 
3 86 96 97 
3 98 88 87 
3 87 97 98 
3 99 89 88 
3 88 98 99 
