<?xml version="1.0" encoding="UTF-8" standalone="no"?>
<!-- Created with Inkscape (http://www.inkscape.org/) -->

<svg
   xmlns:dc="http://purl.org/dc/elements/1.1/"
   xmlns:cc="http://creativecommons.org/ns#"
   xmlns:rdf="http://www.w3.org/1999/02/22-rdf-syntax-ns#"
   xmlns:svg="http://www.w3.org/2000/svg"
   xmlns="http://www.w3.org/2000/svg"
   xmlns:sodipodi="http://sodipodi.sourceforge.net/DTD/sodipodi-0.dtd"
   xmlns:inkscape="http://www.inkscape.org/namespaces/inkscape"
   width="512mm"
   height="512mm"
   viewBox="0 0 512 512"
   version="1.1"
   id="svg8"
   inkscape:version="0.92.3 (2405546, 2018-03-11)"
   sodipodi:docname="aim.svg">
  <defs
     id="defs2" />
  <sodipodi:namedview
     id="base"
     pagecolor="#ffffff"
     bordercolor="#666666"
     borderopacity="1.0"
     inkscape:pageopacity="0.0"
     inkscape:pageshadow="2"
     inkscape:zoom="0.32"
     inkscape:cx="928.27722"
     inkscape:cy="1221.5975"
     inkscape:document-units="mm"
     inkscape:current-layer="layer1"
     showgrid="false"
     inkscape:window-width="1920"
     inkscape:window-height="1017"
     inkscape:window-x="-8"
     inkscape:window-y="-8"
     inkscape:window-maximized="1"
     fit-margin-top="0"
     fit-margin-left="0"
     fit-margin-right="0"
     fit-margin-bottom="0" />
  <metadata
     id="metadata5">
    <rdf:RDF>
      <cc:Work
         rdf:about="">
        <dc:format>image/svg+xml</dc:format>
        <dc:type
           rdf:resource="http://purl.org/dc/dcmitype/StillImage" />
        <dc:title></dc:title>
      </cc:Work>
    </rdf:RDF>
  </metadata>
  <g
     inkscape:label="Layer 1"
     inkscape:groupmode="layer"
     id="layer1"
     transform="translate(151,107.5)">
    <rect
       style="opacity:1;fill:#000000;fill-opacity:1;stroke:none;stroke-width:11.28997421;stroke-miterlimit:4;stroke-dasharray:none;stroke-opacity:1"
       id="rect885"
       width="512"
       height="512"
       x="-151"
       y="-107.5" />
    <path
       style="opacity:1;fill:#00b000;fill-opacity:1;stroke:none;stroke-width:28.91802025;stroke-miterlimit:4;stroke-dasharray:none;stroke-opacity:1"
       d="m 104.9806,-107.49742 c -9.860593,0 -19.723423,1.1066 -21.946743,3.32992 -4.78277,4.782775 -4.78277,123.512656 0,128.295461 2.000021,2.000023 11.628601,3.373858 23.617133,3.373858 15.85802,0 20.60303,-0.963697 21.94124,-4.450886 3.40426,-8.870988 1.9024,-123.651183 -1.66497,-127.218433 -2.22332,-2.22332 -12.08605,-3.32992 -21.94666,-3.32992 z m -39.387631,49.860939 -9.478757,1.538567 c -5.213519,0.846094 -18.190321,4.977184 -28.83732,9.182003 -55.683747,21.991139 -102.079746,71.238282 -122.196071,129.707652 -8.306131,24.141759 -7.745661,26.298669 6.846666,26.298669 h 12.325112 L -72.37903,95.726773 C -64.479843,64.350496 -36.175435,23.336693 -7.5554185,1.796599 10.0541,-11.456796 42.594365,-27.892033 56.334002,-30.469584 c 8.847351,-1.659798 9.258967,-2.301222 9.258967,-14.451653 z m 85.105421,0.796756 c -5.61207,-0.05211 -6.33024,1.340159 -6.33024,12.286655 0,11.871585 0.37854,12.420764 9.79743,14.187884 5.38823,1.010804 21.27484,7.582007 35.30498,14.605488 35.84686,17.945052 61.71741,43.729894 79.48399,79.220291 7.16899,14.320853 13.85851,30.444165 14.8693,35.83239 1.77643,9.469367 2.2629,9.797427 14.54502,9.797427 h 12.7098 L 309.19392,97.29833 C 302.18911,53.492799 261.66328,-1.871653 215.57685,-30.595992 194.82018,-43.533046 162.19013,-56.731999 150.69839,-56.839725 Z M 102.95847,61.526381 C 94.791647,61.704488 86.499787,62.965399 78.275227,65.356344 55.92377,71.85406 29.681789,97.574977 22.562258,119.9649 10.54,157.774 22.657958,196.16709 53.8558,219.1098 c 23.692318,17.42355 54.86115,21.42434 83.48436,10.71509 C 194.07585,208.59734 210.6819,131.76643 168.02378,87.874543 150.84639,70.200366 127.45882,60.992108 102.95847,61.526381 Z m 2.73096,11.660247 c 12.17909,0.182149 24.59657,3.314407 36.28303,9.671061 47.05777,25.595951 52.17197,92.483711 9.56105,125.042441 -20.42523,15.60676 -44.33958,20.34029 -68.032532,13.4735 -16.619781,-4.81678 -35.301362,-20.0974 -44.399021,-36.32141 -7.546895,-13.45849 -8.676472,-18.22171 -8.676472,-36.57419 0,-18.35256 1.129577,-23.11571 8.676472,-36.57421 14.153804,-25.240752 39.79351,-39.118048 66.587473,-38.717192 z m -1.41764,22.144526 c -16.465493,0.304855 -33.189262,7.959136 -44.558411,24.551296 -5.49477,8.019 -6.780658,13.44567 -6.780658,28.62855 0,16.00911 1.161904,20.41738 8.006043,30.2935 14.431124,20.82409 45.844296,29.47758 67.389756,18.56735 20.29806,-10.27848 30.10666,-26.44467 30.10666,-49.63564 0,-32.99901 -26.72112,-52.913263 -54.16339,-52.405056 z m 189.2066,27.617486 c -30.87704,0 -61.75632,1.19124 -64.14774,3.58266 -1.9439,1.94378 -3.37386,11.25578 -3.37386,21.94673 0,10.69084 1.42996,20.00284 3.37386,21.94673 4.78286,4.78275 123.51263,4.78275 128.29551,0 C 359.56992,168.48087 361,159.16887 361,148.47803 c 0,-10.69095 -1.43008,-20.00295 -3.37384,-21.94673 -2.39144,-2.39142 -33.27073,-3.58266 -64.14777,-3.58266 z m -377.644029,0.17587 c -30.865971,0.17078 -61.449461,1.36232 -63.499301,3.41234 -4.44674,4.44665 -4.44674,39.44118 0,43.88795 2.41865,2.41866 20.71513,3.37386 64.510384,3.37386 53.45053,0 61.721194,-0.58973 65.845636,-4.71463 6.03154,-6.03154 4.76725,-39.20269 -1.648452,-43.26153 -3.194303,-2.02087 -34.342276,-2.86883 -65.208267,-2.69799 z m -3.906875,64.74115 c -14.592326,0 -15.152796,2.15691 -6.846666,26.29869 19.82964,57.63602 65.023957,106.33759 120.042048,129.35044 18.275164,7.64418 24.711303,9.53118 34.139977,10.01733 5.652567,0.29136 6.330124,-0.99741 6.330124,-12.023 0,-11.73409 -0.45936,-12.43269 -9.258967,-14.08341 C 41.001175,324.54929 6.7843105,306.73209 -11.792011,291.9505 -39.940217,269.55226 -64.43818,232.77307 -72.47792,200.84465 c -3.263155,-12.95928 -3.288441,-12.97903 -15.594594,-12.97903 z m 400.711724,0 -13.09992,0.0553 -13.09442,0.0489 -6.62137,20.91918 c -8.31515,26.27494 -29.38539,58.65714 -50.38292,77.42346 -16.99534,15.1895 -58.68319,37.90705 -75.275,41.01964 -9.41942,1.76714 -9.79743,2.31074 -9.79743,14.18242 0,10.94646 0.71775,12.3392 6.33024,12.28658 3.48155,-0.032 14.86973,-3.07058 25.30411,-6.75323 v -0.006 c 63.44266,-22.39086 116.04082,-79.1712 132.47154,-142.9994 z m -210.42805,79.49507 c -6.545663,0.24032 -12.595172,1.32747 -15.709993,3.36832 l -6.84116,4.48386 v 61.26294 c 0,43.90116 0.95487,62.22855 3.37385,64.64774 1.94377,1.94377 11.25579,3.37384 21.946743,3.37384 10.69097,0 20.0029,-1.43007 21.94666,-3.37384 4.00504,-4.00504 4.79913,-122.25314 0.86236,-128.46576 -2.37963,-3.75579 -14.66942,-5.69754 -25.57888,-5.2971 z"
       id="rect881"
       inkscape:connector-curvature="0" />
  </g>
</svg>
